G75*
G70*
%OFA0B0*%
%FSLAX24Y24*%
%IPPOS*%
%LPD*%
%AMOC8*
5,1,8,0,0,1.08239X$1,22.5*
%
%ADD10C,0.1340*%
%ADD11R,0.0330X0.0580*%
%ADD12R,0.0740X0.0740*%
%ADD13OC8,0.0740*%
%ADD14R,0.0880X0.0880*%
%ADD15OC8,0.0880*%
%ADD16R,0.0513X0.0474*%
%ADD17R,0.0474X0.0513*%
%ADD18OC8,0.1080*%
%ADD19R,0.0316X0.0867*%
%ADD20R,0.0395X0.0395*%
%ADD21C,0.0434*%
%ADD22C,0.0820*%
%ADD23OC8,0.0714*%
%ADD24R,0.0714X0.0714*%
%ADD25R,0.0828X0.0513*%
%ADD26R,0.0316X0.1615*%
%ADD27OC8,0.0840*%
%ADD28R,0.0840X0.0840*%
%ADD29R,0.1080X0.1080*%
%ADD30C,0.0438*%
%ADD31R,0.0316X0.0316*%
%ADD32C,0.0316*%
%ADD33OC8,0.0556*%
%ADD34OC8,0.0438*%
%ADD35C,0.2620*%
D10*
X028289Y005476D03*
X051911Y005476D03*
X075533Y005476D03*
X069627Y042877D03*
X046005Y042877D03*
X022383Y042877D03*
D11*
X017356Y021979D03*
X016856Y021979D03*
X016356Y021979D03*
X015856Y021979D03*
X015856Y019979D03*
X016356Y019979D03*
X016856Y019979D03*
X017356Y019979D03*
D12*
X012620Y001554D03*
X088120Y010054D03*
X088120Y011554D03*
X088120Y013054D03*
X089106Y006654D03*
X089120Y036141D03*
X089120Y040054D03*
D13*
X089120Y041054D03*
X089120Y042054D03*
X089120Y037141D03*
X089120Y013054D03*
X089120Y011554D03*
X089120Y010054D03*
X089106Y008654D03*
X089106Y007654D03*
X014620Y002554D03*
X013620Y002554D03*
X013620Y001554D03*
X014620Y001554D03*
X012620Y002554D03*
D14*
X008633Y012854D03*
D15*
X008633Y013854D03*
X008633Y014854D03*
X008633Y015854D03*
X008633Y016854D03*
X008633Y017854D03*
D16*
X010133Y012789D03*
X010133Y012120D03*
X018706Y014820D03*
X018706Y015489D03*
X011520Y005302D03*
X011520Y004633D03*
X011598Y003654D03*
X012268Y003654D03*
D17*
X009968Y006254D03*
X009968Y006854D03*
X009298Y006854D03*
X009298Y006254D03*
X014956Y006096D03*
X014956Y006765D03*
X015533Y010520D03*
X015533Y011189D03*
X011733Y011389D03*
X011733Y010720D03*
X015020Y019706D03*
X015020Y020376D03*
X087498Y036454D03*
X087471Y037054D03*
X088141Y037054D03*
X088168Y036454D03*
D18*
X089120Y033013D03*
X089120Y031044D03*
X089120Y029076D03*
X089120Y027107D03*
X089120Y025139D03*
X089120Y023170D03*
X089120Y021202D03*
X089120Y019233D03*
X089120Y017265D03*
X089120Y015296D03*
D19*
X017970Y016405D03*
X017470Y016405D03*
X016970Y016405D03*
X016470Y016405D03*
X015970Y016405D03*
X015470Y016405D03*
X014970Y016405D03*
X014470Y016405D03*
X013970Y016405D03*
X013470Y016405D03*
X012970Y016405D03*
X012470Y016405D03*
X011970Y016405D03*
X011470Y016405D03*
X011470Y012704D03*
X011970Y012704D03*
X012470Y012704D03*
X012970Y012704D03*
X013470Y012704D03*
X013970Y012704D03*
X014470Y012704D03*
X014970Y012704D03*
X015470Y012704D03*
X015970Y012704D03*
X016470Y012704D03*
X016970Y012704D03*
X017470Y012704D03*
X017970Y012704D03*
D20*
X018720Y013672D03*
X018720Y014263D03*
X011028Y006954D03*
X010438Y006954D03*
X010438Y006154D03*
X011028Y006154D03*
X011028Y004554D03*
X010438Y004554D03*
D21*
X009620Y005688D03*
X009620Y007420D03*
D22*
X009620Y009568D03*
X010620Y009568D03*
X008620Y009568D03*
X008500Y010991D03*
X009640Y010991D03*
X016120Y001554D03*
X017120Y001554D03*
X018120Y001554D03*
X087133Y038654D03*
X088133Y038654D03*
X089133Y038654D03*
X089190Y043368D03*
X088050Y043368D03*
X088060Y005000D03*
X089200Y005000D03*
D23*
X010206Y021754D03*
X009206Y021754D03*
X009206Y022754D03*
X010206Y022754D03*
X010206Y023754D03*
X009206Y023754D03*
X009206Y024754D03*
X010206Y024754D03*
X010206Y025754D03*
X009206Y025754D03*
X009206Y026754D03*
X010206Y026754D03*
X010206Y027754D03*
X009206Y027754D03*
X009206Y020754D03*
D24*
X010206Y020754D03*
D25*
X012505Y011507D03*
X012505Y010602D03*
X013961Y010602D03*
X013961Y011507D03*
D26*
X080018Y034274D03*
X080518Y034274D03*
X081018Y034274D03*
X081518Y034274D03*
X082018Y034274D03*
X082518Y034274D03*
X083018Y034274D03*
X083518Y034274D03*
X084018Y034274D03*
X084518Y034274D03*
X084518Y037424D03*
X084018Y037424D03*
X083518Y037424D03*
X083018Y037424D03*
X082518Y037424D03*
X082018Y037424D03*
X081518Y037424D03*
X081018Y037424D03*
X080518Y037424D03*
X080018Y037424D03*
X079997Y039677D03*
X080497Y039677D03*
X080997Y039677D03*
X081497Y039677D03*
X081997Y039677D03*
X082497Y039677D03*
X082997Y039677D03*
X083497Y039677D03*
X083997Y039677D03*
X084497Y039677D03*
X084497Y042827D03*
X083997Y042827D03*
X083497Y042827D03*
X082997Y042827D03*
X082497Y042827D03*
X081997Y042827D03*
X081497Y042827D03*
X080997Y042827D03*
X080497Y042827D03*
X079997Y042827D03*
D27*
X077860Y041987D03*
X077860Y040987D03*
X077860Y039987D03*
X077860Y038987D03*
X077860Y037987D03*
X077860Y036987D03*
X077860Y035987D03*
X077860Y034987D03*
X077860Y033987D03*
X077860Y032987D03*
X077860Y031987D03*
X077860Y030987D03*
X077860Y029987D03*
X074860Y030987D03*
X074860Y031987D03*
X074860Y032987D03*
X074860Y033987D03*
X074860Y034987D03*
X074860Y035987D03*
X074860Y036987D03*
X074860Y037987D03*
X074860Y038987D03*
X074860Y039987D03*
X074860Y040987D03*
X074860Y041987D03*
X066049Y041987D03*
X066049Y040987D03*
X066049Y039987D03*
X066049Y038987D03*
X066049Y037987D03*
X066049Y036987D03*
X066049Y035987D03*
X066049Y034987D03*
X066049Y033987D03*
X066049Y032987D03*
X066049Y031987D03*
X066049Y030987D03*
X066049Y029987D03*
X063049Y030987D03*
X063049Y031987D03*
X063049Y032987D03*
X063049Y033987D03*
X063049Y034987D03*
X063049Y035987D03*
X063049Y036987D03*
X063049Y037987D03*
X063049Y038987D03*
X063049Y039987D03*
X063049Y040987D03*
X063049Y041987D03*
X054238Y041987D03*
X054238Y040987D03*
X054238Y039987D03*
X054238Y038987D03*
X054238Y037987D03*
X054238Y036987D03*
X054238Y035987D03*
X054238Y034987D03*
X054238Y033987D03*
X054238Y032987D03*
X054238Y031987D03*
X054238Y030987D03*
X054238Y029987D03*
X051238Y030987D03*
X051238Y031987D03*
X051238Y032987D03*
X051238Y033987D03*
X051238Y034987D03*
X051238Y035987D03*
X051238Y036987D03*
X051238Y037987D03*
X051238Y038987D03*
X051238Y039987D03*
X051238Y040987D03*
X051238Y041987D03*
X042427Y041987D03*
X042427Y040987D03*
X042427Y039987D03*
X042427Y038987D03*
X042427Y037987D03*
X042427Y036987D03*
X042427Y035987D03*
X042427Y034987D03*
X042427Y033987D03*
X042427Y032987D03*
X042427Y031987D03*
X042427Y030987D03*
X042427Y029987D03*
X039427Y030987D03*
X039427Y031987D03*
X039427Y032987D03*
X039427Y033987D03*
X039427Y034987D03*
X039427Y035987D03*
X039427Y036987D03*
X039427Y037987D03*
X039427Y038987D03*
X039427Y039987D03*
X039427Y040987D03*
X039427Y041987D03*
X030616Y041987D03*
X030616Y040987D03*
X030616Y039987D03*
X030616Y038987D03*
X030616Y037987D03*
X030616Y036987D03*
X030616Y035987D03*
X030616Y034987D03*
X030616Y033987D03*
X030616Y032987D03*
X030616Y031987D03*
X030616Y030987D03*
X030616Y029987D03*
X027616Y030987D03*
X027616Y031987D03*
X027616Y032987D03*
X027616Y033987D03*
X027616Y034987D03*
X027616Y035987D03*
X027616Y036987D03*
X027616Y037987D03*
X027616Y038987D03*
X027616Y039987D03*
X027616Y040987D03*
X027616Y041987D03*
X018805Y041987D03*
X018805Y040987D03*
X018805Y039987D03*
X018805Y038987D03*
X018805Y037987D03*
X018805Y036987D03*
X018805Y035987D03*
X018805Y034987D03*
X018805Y033987D03*
X018805Y032987D03*
X018805Y031987D03*
X018805Y030987D03*
X018805Y029987D03*
X015805Y030987D03*
X015805Y031987D03*
X015805Y032987D03*
X015805Y033987D03*
X015805Y034987D03*
X015805Y035987D03*
X015805Y036987D03*
X015805Y037987D03*
X015805Y038987D03*
X015805Y039987D03*
X015805Y040987D03*
X015805Y041987D03*
X020057Y018365D03*
X020057Y017365D03*
X020057Y016365D03*
X020057Y015365D03*
X020057Y014365D03*
X020057Y013365D03*
X020057Y012365D03*
X020057Y011365D03*
X020057Y010365D03*
X020057Y009365D03*
X020057Y008365D03*
X020057Y007365D03*
X020057Y006365D03*
X023057Y006365D03*
X023057Y007365D03*
X023057Y008365D03*
X023057Y009365D03*
X023057Y010365D03*
X023057Y011365D03*
X023057Y012365D03*
X023057Y013365D03*
X023057Y014365D03*
X023057Y015365D03*
X023057Y016365D03*
X023057Y017365D03*
X031868Y017365D03*
X031868Y018365D03*
X031868Y016365D03*
X031868Y015365D03*
X031868Y014365D03*
X031868Y013365D03*
X031868Y012365D03*
X031868Y011365D03*
X031868Y010365D03*
X031868Y009365D03*
X031868Y008365D03*
X031868Y007365D03*
X031868Y006365D03*
X034868Y006365D03*
X034868Y007365D03*
X034868Y008365D03*
X034868Y009365D03*
X034868Y010365D03*
X034868Y011365D03*
X034868Y012365D03*
X034868Y013365D03*
X034868Y014365D03*
X034868Y015365D03*
X034868Y016365D03*
X034868Y017365D03*
X043679Y017365D03*
X043679Y018365D03*
X043679Y016365D03*
X043679Y015365D03*
X043679Y014365D03*
X043679Y013365D03*
X043679Y012365D03*
X043679Y011365D03*
X043679Y010365D03*
X043679Y009365D03*
X043679Y008365D03*
X043679Y007365D03*
X043679Y006365D03*
X046679Y006365D03*
X046679Y007365D03*
X046679Y008365D03*
X046679Y009365D03*
X046679Y010365D03*
X046679Y011365D03*
X046679Y012365D03*
X046679Y013365D03*
X046679Y014365D03*
X046679Y015365D03*
X046679Y016365D03*
X046679Y017365D03*
X055490Y017365D03*
X055490Y018365D03*
X055490Y016365D03*
X055490Y015365D03*
X055490Y014365D03*
X055490Y013365D03*
X055490Y012365D03*
X055490Y011365D03*
X055490Y010365D03*
X055490Y009365D03*
X055490Y008365D03*
X055490Y007365D03*
X055490Y006365D03*
X058490Y006365D03*
X058490Y007365D03*
X058490Y008365D03*
X058490Y009365D03*
X058490Y010365D03*
X058490Y011365D03*
X058490Y012365D03*
X058490Y013365D03*
X058490Y014365D03*
X058490Y015365D03*
X058490Y016365D03*
X058490Y017365D03*
X067301Y017365D03*
X067301Y018365D03*
X067301Y016365D03*
X067301Y015365D03*
X067301Y014365D03*
X067301Y013365D03*
X067301Y012365D03*
X067301Y011365D03*
X067301Y010365D03*
X067301Y009365D03*
X067301Y008365D03*
X067301Y007365D03*
X067301Y006365D03*
X070301Y006365D03*
X070301Y007365D03*
X070301Y008365D03*
X070301Y009365D03*
X070301Y010365D03*
X070301Y011365D03*
X070301Y012365D03*
X070301Y013365D03*
X070301Y014365D03*
X070301Y015365D03*
X070301Y016365D03*
X070301Y017365D03*
X079112Y017365D03*
X079112Y018365D03*
X079112Y016365D03*
X079112Y015365D03*
X079112Y014365D03*
X079112Y013365D03*
X079112Y012365D03*
X079112Y011365D03*
X079112Y010365D03*
X079112Y009365D03*
X079112Y008365D03*
X079112Y007365D03*
X079112Y006365D03*
X082112Y006365D03*
X082112Y007365D03*
X082112Y008365D03*
X082112Y009365D03*
X082112Y010365D03*
X082112Y011365D03*
X082112Y012365D03*
X082112Y013365D03*
X082112Y014365D03*
X082112Y015365D03*
X082112Y016365D03*
X082112Y017365D03*
D28*
X082112Y018365D03*
X070301Y018365D03*
X058490Y018365D03*
X046679Y018365D03*
X034868Y018365D03*
X023057Y018365D03*
X027616Y029987D03*
X039427Y029987D03*
X051238Y029987D03*
X063049Y029987D03*
X074860Y029987D03*
X015805Y029987D03*
D29*
X025120Y025554D03*
X026620Y024154D03*
X028120Y022754D03*
X023620Y024154D03*
X022120Y022754D03*
X014620Y022754D03*
X014620Y024154D03*
X034120Y022754D03*
X035620Y024154D03*
X037120Y025554D03*
X038620Y024154D03*
X040120Y022754D03*
X046120Y022754D03*
X047620Y024154D03*
X049120Y025554D03*
X050620Y024154D03*
X052120Y022754D03*
X058120Y022754D03*
X059620Y024154D03*
X061120Y025554D03*
X062620Y024154D03*
X064120Y022754D03*
X070120Y022754D03*
X071620Y024154D03*
X073120Y025554D03*
X074620Y024154D03*
X076120Y022754D03*
X083420Y025554D03*
X084920Y024154D03*
X086420Y022754D03*
X084920Y019254D03*
X083420Y015354D03*
X083120Y003154D03*
X084620Y001754D03*
X073120Y001754D03*
X071620Y003154D03*
X061120Y001754D03*
X059620Y003154D03*
X049120Y001754D03*
X047620Y003154D03*
X037620Y001754D03*
X036120Y003154D03*
X025620Y001754D03*
X024120Y003154D03*
X026620Y045354D03*
X025120Y046754D03*
X014620Y045354D03*
X013120Y046754D03*
X036620Y046754D03*
X038120Y045354D03*
X048620Y046754D03*
X050120Y045354D03*
X060620Y046754D03*
X062120Y045354D03*
X072120Y046754D03*
X073620Y045354D03*
X081620Y045354D03*
D30*
X081920Y045054D03*
X081920Y045654D03*
X081320Y045654D03*
X081320Y045054D03*
X073920Y045054D03*
X073920Y045654D03*
X073320Y045654D03*
X073320Y045054D03*
X072420Y046454D03*
X072420Y047054D03*
X071820Y047054D03*
X071820Y046454D03*
X062420Y045654D03*
X062420Y045054D03*
X061820Y045054D03*
X061820Y045654D03*
X060920Y046454D03*
X060920Y047054D03*
X060320Y047054D03*
X060320Y046454D03*
X050420Y045654D03*
X050420Y045054D03*
X049820Y045054D03*
X049820Y045654D03*
X048920Y046454D03*
X048920Y047054D03*
X048320Y047054D03*
X048320Y046454D03*
X038420Y045654D03*
X038420Y045054D03*
X037820Y045054D03*
X037820Y045654D03*
X036920Y046454D03*
X036920Y047054D03*
X036320Y047054D03*
X036320Y046454D03*
X026920Y045654D03*
X026920Y045054D03*
X026320Y045054D03*
X026320Y045654D03*
X025420Y046454D03*
X025420Y047054D03*
X024820Y047054D03*
X024820Y046454D03*
X014920Y045654D03*
X014920Y045054D03*
X014320Y045054D03*
X014320Y045654D03*
X013420Y046454D03*
X013420Y047054D03*
X012820Y047054D03*
X012820Y046454D03*
X024820Y025854D03*
X025420Y025854D03*
X025420Y025254D03*
X024820Y025254D03*
X023920Y024454D03*
X023320Y024454D03*
X023320Y023854D03*
X023920Y023854D03*
X022420Y023054D03*
X022420Y022454D03*
X021820Y022454D03*
X021820Y023054D03*
X026320Y023854D03*
X026920Y023854D03*
X027820Y023054D03*
X028420Y023054D03*
X028420Y022454D03*
X027820Y022454D03*
X026920Y024454D03*
X026320Y024454D03*
X033820Y023054D03*
X034420Y023054D03*
X034420Y022454D03*
X033820Y022454D03*
X035320Y023854D03*
X035920Y023854D03*
X035920Y024454D03*
X035320Y024454D03*
X036820Y025254D03*
X037420Y025254D03*
X037420Y025854D03*
X036820Y025854D03*
X038320Y024454D03*
X038920Y024454D03*
X038920Y023854D03*
X038320Y023854D03*
X039820Y023054D03*
X040420Y023054D03*
X040420Y022454D03*
X039820Y022454D03*
X045820Y022454D03*
X046420Y022454D03*
X046420Y023054D03*
X045820Y023054D03*
X047320Y023854D03*
X047920Y023854D03*
X047920Y024454D03*
X047320Y024454D03*
X048820Y025254D03*
X049420Y025254D03*
X049420Y025854D03*
X048820Y025854D03*
X050320Y024454D03*
X050920Y024454D03*
X050920Y023854D03*
X050320Y023854D03*
X051820Y023054D03*
X052420Y023054D03*
X052420Y022454D03*
X051820Y022454D03*
X057820Y022454D03*
X058420Y022454D03*
X058420Y023054D03*
X057820Y023054D03*
X059320Y023854D03*
X059920Y023854D03*
X059920Y024454D03*
X059320Y024454D03*
X060820Y025254D03*
X061420Y025254D03*
X061420Y025854D03*
X060820Y025854D03*
X062320Y024454D03*
X062920Y024454D03*
X062920Y023854D03*
X062320Y023854D03*
X063820Y023054D03*
X064420Y023054D03*
X064420Y022454D03*
X063820Y022454D03*
X069820Y022454D03*
X070420Y022454D03*
X070420Y023054D03*
X069820Y023054D03*
X071320Y023854D03*
X071920Y023854D03*
X071920Y024454D03*
X071320Y024454D03*
X072820Y025254D03*
X073420Y025254D03*
X073420Y025854D03*
X072820Y025854D03*
X074320Y024454D03*
X074920Y024454D03*
X074920Y023854D03*
X074320Y023854D03*
X075820Y023054D03*
X076420Y023054D03*
X076420Y022454D03*
X075820Y022454D03*
X083120Y025254D03*
X083720Y025254D03*
X083720Y025854D03*
X083120Y025854D03*
X084620Y024454D03*
X085220Y024454D03*
X085220Y023854D03*
X084620Y023854D03*
X086120Y023054D03*
X086720Y023054D03*
X086720Y022454D03*
X086120Y022454D03*
X085220Y019554D03*
X084620Y019554D03*
X084620Y018954D03*
X085220Y018954D03*
X083720Y015654D03*
X083720Y015054D03*
X083120Y015054D03*
X083120Y015654D03*
X082820Y003454D03*
X083420Y003454D03*
X083420Y002854D03*
X082820Y002854D03*
X084320Y002054D03*
X084920Y002054D03*
X084920Y001454D03*
X084320Y001454D03*
X073420Y001454D03*
X073420Y002054D03*
X072820Y002054D03*
X072820Y001454D03*
X071920Y002854D03*
X071920Y003454D03*
X071320Y003454D03*
X071320Y002854D03*
X061420Y002054D03*
X061420Y001454D03*
X060820Y001454D03*
X060820Y002054D03*
X059920Y002854D03*
X059920Y003454D03*
X059320Y003454D03*
X059320Y002854D03*
X049420Y002054D03*
X049420Y001454D03*
X048820Y001454D03*
X048820Y002054D03*
X047920Y002854D03*
X047920Y003454D03*
X047320Y003454D03*
X047320Y002854D03*
X037920Y002054D03*
X037920Y001454D03*
X037320Y001454D03*
X037320Y002054D03*
X036420Y002854D03*
X036420Y003454D03*
X035820Y003454D03*
X035820Y002854D03*
X025920Y002054D03*
X025920Y001454D03*
X025320Y001454D03*
X025320Y002054D03*
X024420Y002854D03*
X024420Y003454D03*
X023820Y003454D03*
X023820Y002854D03*
X014920Y022454D03*
X014920Y023054D03*
X014320Y023054D03*
X014320Y022454D03*
X014320Y023854D03*
X014920Y023854D03*
X014920Y024454D03*
X014320Y024454D03*
D31*
X015797Y007944D03*
D32*
X016269Y007944D03*
X016269Y007472D03*
X015797Y007472D03*
X015797Y006999D03*
X016269Y006999D03*
X016269Y006527D03*
X015797Y006527D03*
X015797Y006054D03*
X016269Y006054D03*
X016269Y005582D03*
X015797Y005582D03*
X015797Y005109D03*
X015797Y004637D03*
X016269Y004637D03*
X016269Y004165D03*
X015797Y004165D03*
X016742Y004165D03*
X016742Y004637D03*
X017214Y004637D03*
X017686Y004637D03*
X017686Y004165D03*
X017214Y004165D03*
X018159Y004165D03*
X018159Y004637D03*
X018159Y005109D03*
X017686Y005109D03*
X017214Y005109D03*
X016742Y005109D03*
X016742Y005582D03*
X017214Y005582D03*
X017214Y006054D03*
X017686Y006054D03*
X017686Y005582D03*
X018159Y005582D03*
X018159Y006054D03*
X018159Y006527D03*
X018159Y006999D03*
X017686Y006999D03*
X017214Y006999D03*
X017214Y006527D03*
X017686Y006527D03*
X016742Y006527D03*
X016742Y006999D03*
X016742Y007472D03*
X017214Y007472D03*
X017214Y007944D03*
X017686Y007944D03*
X017686Y007472D03*
X018159Y007472D03*
X018159Y007944D03*
X016742Y007944D03*
X016742Y006054D03*
X016269Y005109D03*
D33*
X013720Y005554D03*
X013320Y006054D03*
X014120Y006554D03*
X013520Y007354D03*
X012120Y007654D03*
X012220Y009054D03*
X013120Y009054D03*
X014220Y009554D03*
X015020Y009254D03*
X014820Y010454D03*
X013120Y010054D03*
X010720Y011054D03*
X010820Y012154D03*
X010320Y014454D03*
X011920Y015254D03*
X013420Y015554D03*
X014920Y014254D03*
X015120Y017454D03*
X014820Y018554D03*
X018387Y020974D03*
X019020Y021554D03*
X021420Y021554D03*
X022120Y020954D03*
X023020Y020354D03*
X020420Y019154D03*
X019620Y019754D03*
X009920Y015754D03*
X018620Y008354D03*
X015020Y007554D03*
X013020Y004754D03*
X013320Y004154D03*
X015954Y003313D03*
X016920Y003054D03*
X011220Y001754D03*
X009520Y004554D03*
X032720Y019754D03*
X034020Y020954D03*
X033320Y021554D03*
X034920Y020354D03*
X044620Y019754D03*
X045820Y020954D03*
X045220Y021554D03*
X046620Y020354D03*
X056420Y019754D03*
X057620Y020954D03*
X057020Y021554D03*
X058420Y020354D03*
X068220Y019754D03*
X069420Y020954D03*
X068820Y021554D03*
X070220Y020354D03*
X077420Y020354D03*
X080120Y021554D03*
X081220Y020954D03*
X087409Y017365D03*
X076220Y028354D03*
X079020Y032954D03*
X086820Y034654D03*
X081620Y045054D03*
X063820Y028554D03*
X064620Y027354D03*
X065220Y026754D03*
X062220Y027954D03*
X053420Y026754D03*
X052820Y027354D03*
X052020Y028554D03*
X050420Y027954D03*
X041620Y026754D03*
X041020Y027354D03*
X040220Y028554D03*
X038620Y027954D03*
X029820Y026754D03*
X029220Y027354D03*
X028620Y028554D03*
X026620Y027954D03*
X020420Y027354D03*
X019620Y026754D03*
X019020Y027954D03*
X018420Y028554D03*
X017420Y027954D03*
X016620Y028554D03*
X016420Y026754D03*
D34*
X010920Y005454D03*
D35*
X009588Y002523D03*
X009588Y045830D03*
X088328Y045830D03*
X088328Y002523D03*
M02*
