G75*
G70*
%OFA0B0*%
%FSLAX24Y24*%
%IPPOS*%
%LPD*%
%AMOC8*
5,1,8,0,0,1.08239X$1,22.5*
%
%ADD10C,0.1340*%
%ADD11R,0.0740X0.0740*%
%ADD12OC8,0.0740*%
%ADD13R,0.0474X0.0513*%
%ADD14R,0.0513X0.0474*%
%ADD15R,0.0880X0.0880*%
%ADD16OC8,0.0880*%
%ADD17OC8,0.1080*%
%ADD18R,0.0789X0.0710*%
%ADD19R,0.0671X0.0237*%
%ADD20R,0.1064X0.0277*%
%ADD21R,0.1064X0.0867*%
%ADD22C,0.0434*%
%ADD23R,0.0960X0.0560*%
%ADD24R,0.0946X0.1497*%
%ADD25R,0.0631X0.0710*%
%ADD26C,0.0820*%
%ADD27OC8,0.0714*%
%ADD28R,0.0714X0.0714*%
%ADD29R,0.0316X0.1615*%
%ADD30R,0.0474X0.0867*%
%ADD31OC8,0.0840*%
%ADD32R,0.0840X0.0840*%
%ADD33R,0.1080X0.1080*%
%ADD34C,0.0438*%
%ADD35OC8,0.0556*%
%ADD36OC8,0.0438*%
%ADD37C,0.2620*%
D10*
X028289Y005476D03*
X051911Y005476D03*
X075533Y005476D03*
X069627Y042877D03*
X046005Y042877D03*
X022383Y042877D03*
D11*
X088120Y013054D03*
X088120Y011554D03*
X088120Y010054D03*
X089106Y006654D03*
X089120Y036141D03*
X089120Y040054D03*
X012620Y001554D03*
D12*
X013620Y001554D03*
X014620Y001554D03*
X014620Y002554D03*
X013620Y002554D03*
X012620Y002554D03*
X089106Y007654D03*
X089106Y008654D03*
X089120Y010054D03*
X089120Y011554D03*
X089120Y013054D03*
X089120Y037141D03*
X089120Y041054D03*
X089120Y042054D03*
D13*
X088854Y037854D03*
X088185Y037854D03*
X087554Y037854D03*
X086885Y037854D03*
X087132Y004931D03*
X086463Y004931D03*
X016722Y002424D03*
X016053Y002424D03*
D14*
X013754Y010968D03*
X013085Y010968D03*
X011941Y014554D03*
X011271Y014554D03*
X088220Y041606D03*
X088220Y042276D03*
X089033Y035389D03*
X089033Y034720D03*
D15*
X008633Y012854D03*
D16*
X008633Y013854D03*
X008633Y014854D03*
X008633Y015854D03*
X008633Y016854D03*
X008633Y017854D03*
D17*
X089120Y017265D03*
X089120Y015296D03*
X089120Y019233D03*
X089120Y021202D03*
X089120Y023170D03*
X089120Y025139D03*
X089120Y027107D03*
X089120Y029076D03*
X089120Y031044D03*
X089120Y033013D03*
D18*
X088120Y035917D03*
X088120Y037019D03*
X014933Y016506D03*
X014933Y015403D03*
D19*
X015147Y006931D03*
X015147Y006675D03*
X015147Y006419D03*
X015147Y006163D03*
X015147Y005907D03*
X015147Y005652D03*
X015147Y005396D03*
X015147Y005140D03*
X015147Y004884D03*
X015147Y004628D03*
X015147Y004372D03*
X015147Y004116D03*
X015147Y003860D03*
X015147Y003604D03*
X012292Y003604D03*
X012292Y003860D03*
X012292Y004116D03*
X012292Y004372D03*
X012292Y004628D03*
X012292Y004884D03*
X012292Y005140D03*
X012292Y005396D03*
X012292Y005652D03*
X012292Y005907D03*
X012292Y006163D03*
X012292Y006419D03*
X012292Y006675D03*
X012292Y006931D03*
D20*
X010604Y006869D03*
X010604Y006554D03*
X010604Y006239D03*
X010604Y005924D03*
X010604Y007184D03*
D21*
X008438Y004783D03*
X010604Y004783D03*
X010604Y008326D03*
X008438Y008326D03*
D22*
X009620Y007420D03*
X009620Y005688D03*
D23*
X012313Y011744D03*
X012313Y012654D03*
X012313Y013564D03*
D24*
X014753Y012654D03*
D25*
X013957Y014754D03*
X012855Y014754D03*
D26*
X009640Y010991D03*
X008500Y010991D03*
X008620Y009568D03*
X009620Y009568D03*
X010620Y009568D03*
X016120Y001554D03*
X017120Y001554D03*
X018120Y001554D03*
X087133Y038654D03*
X088133Y038654D03*
X089133Y038654D03*
X089190Y043368D03*
X088050Y043368D03*
X088060Y005000D03*
X089200Y005000D03*
D27*
X010206Y021754D03*
X009206Y021754D03*
X009206Y022754D03*
X010206Y022754D03*
X010206Y023754D03*
X009206Y023754D03*
X009206Y024754D03*
X010206Y024754D03*
X010206Y025754D03*
X009206Y025754D03*
X009206Y026754D03*
X010206Y026754D03*
X010206Y027754D03*
X009206Y027754D03*
X009206Y020754D03*
D28*
X010206Y020754D03*
D29*
X025177Y013693D03*
X025677Y013693D03*
X026177Y013693D03*
X026677Y013693D03*
X027177Y013693D03*
X027677Y013693D03*
X028177Y013693D03*
X028677Y013693D03*
X029177Y013693D03*
X029677Y013693D03*
X029677Y010543D03*
X029177Y010543D03*
X028677Y010543D03*
X028177Y010543D03*
X027677Y010543D03*
X027177Y010543D03*
X026677Y010543D03*
X026177Y010543D03*
X025677Y010543D03*
X025177Y010543D03*
X036988Y010543D03*
X037488Y010543D03*
X037988Y010543D03*
X038488Y010543D03*
X038988Y010543D03*
X039488Y010543D03*
X039988Y010543D03*
X040488Y010543D03*
X040988Y010543D03*
X041488Y010543D03*
X041488Y013693D03*
X040988Y013693D03*
X040488Y013693D03*
X039988Y013693D03*
X039488Y013693D03*
X038988Y013693D03*
X038488Y013693D03*
X037988Y013693D03*
X037488Y013693D03*
X036988Y013693D03*
X048799Y013693D03*
X049299Y013693D03*
X049799Y013693D03*
X050299Y013693D03*
X050799Y013693D03*
X051299Y013693D03*
X051799Y013693D03*
X052299Y013693D03*
X052799Y013693D03*
X053299Y013693D03*
X053299Y010543D03*
X052799Y010543D03*
X052299Y010543D03*
X051799Y010543D03*
X051299Y010543D03*
X050799Y010543D03*
X050299Y010543D03*
X049799Y010543D03*
X049299Y010543D03*
X048799Y010543D03*
X060610Y010543D03*
X061110Y010543D03*
X061610Y010543D03*
X062110Y010543D03*
X062610Y010543D03*
X063110Y010543D03*
X063610Y010543D03*
X064110Y010543D03*
X064610Y010543D03*
X065110Y010543D03*
X065110Y013693D03*
X064610Y013693D03*
X064110Y013693D03*
X063610Y013693D03*
X063110Y013693D03*
X062610Y013693D03*
X062110Y013693D03*
X061610Y013693D03*
X061110Y013693D03*
X060610Y013693D03*
X072421Y013693D03*
X072921Y013693D03*
X073421Y013693D03*
X073921Y013693D03*
X074421Y013693D03*
X074921Y013693D03*
X075421Y013693D03*
X075921Y013693D03*
X076421Y013693D03*
X076921Y013693D03*
X076921Y010543D03*
X076421Y010543D03*
X075921Y010543D03*
X075421Y010543D03*
X074921Y010543D03*
X074421Y010543D03*
X073921Y010543D03*
X073421Y010543D03*
X072921Y010543D03*
X072421Y010543D03*
X072267Y034632D03*
X071767Y034632D03*
X071267Y034632D03*
X070767Y034632D03*
X070267Y034632D03*
X069767Y034632D03*
X069267Y034632D03*
X068767Y034632D03*
X068267Y034632D03*
X072767Y034632D03*
X072767Y037782D03*
X072267Y037782D03*
X071767Y037782D03*
X071267Y037782D03*
X070767Y037782D03*
X070267Y037782D03*
X069767Y037782D03*
X069267Y037782D03*
X068767Y037782D03*
X068267Y037782D03*
X060767Y037782D03*
X060267Y037782D03*
X059767Y037782D03*
X059267Y037782D03*
X058767Y037782D03*
X058267Y037782D03*
X057767Y037782D03*
X057267Y037782D03*
X056767Y037782D03*
X056267Y037782D03*
X056267Y034632D03*
X056767Y034632D03*
X057267Y034632D03*
X057767Y034632D03*
X058267Y034632D03*
X058767Y034632D03*
X059267Y034632D03*
X059767Y034632D03*
X060267Y034632D03*
X060767Y034632D03*
X048767Y034632D03*
X048267Y034632D03*
X047767Y034632D03*
X047267Y034632D03*
X046767Y034632D03*
X046267Y034632D03*
X045767Y034632D03*
X045267Y034632D03*
X044767Y034632D03*
X044267Y034632D03*
X044267Y037782D03*
X044767Y037782D03*
X045267Y037782D03*
X045767Y037782D03*
X046267Y037782D03*
X046767Y037782D03*
X047267Y037782D03*
X047767Y037782D03*
X048267Y037782D03*
X048767Y037782D03*
X037267Y037782D03*
X036767Y037782D03*
X036267Y037782D03*
X035767Y037782D03*
X035267Y037782D03*
X034767Y037782D03*
X034267Y037782D03*
X033767Y037782D03*
X033267Y037782D03*
X032767Y037782D03*
X032767Y034632D03*
X033267Y034632D03*
X033767Y034632D03*
X034267Y034632D03*
X034767Y034632D03*
X035267Y034632D03*
X035767Y034632D03*
X036267Y034632D03*
X036767Y034632D03*
X037267Y034632D03*
X025267Y034632D03*
X024767Y034632D03*
X024267Y034632D03*
X023767Y034632D03*
X023267Y034632D03*
X022767Y034632D03*
X022267Y034632D03*
X021767Y034632D03*
X021267Y034632D03*
X020767Y034632D03*
X020767Y037782D03*
X021267Y037782D03*
X021767Y037782D03*
X022267Y037782D03*
X022767Y037782D03*
X023267Y037782D03*
X023767Y037782D03*
X024267Y037782D03*
X024767Y037782D03*
X025267Y037782D03*
D30*
X024517Y040057D03*
X023517Y041357D03*
X021517Y041357D03*
X020517Y040057D03*
X022517Y040057D03*
X025517Y041357D03*
X032517Y040057D03*
X033517Y041357D03*
X035517Y041357D03*
X037517Y041357D03*
X036517Y040057D03*
X034517Y040057D03*
X044017Y040057D03*
X046017Y040057D03*
X045017Y041357D03*
X047017Y041357D03*
X048017Y040057D03*
X049017Y041357D03*
X056017Y040057D03*
X057017Y041357D03*
X059017Y041357D03*
X061017Y041357D03*
X060017Y040057D03*
X058017Y040057D03*
X068017Y040057D03*
X070017Y040057D03*
X072017Y040057D03*
X071017Y041357D03*
X069017Y041357D03*
X073017Y041357D03*
X073017Y032357D03*
X072017Y031057D03*
X071017Y032357D03*
X070017Y031057D03*
X069017Y032357D03*
X068017Y031057D03*
X061017Y032357D03*
X060017Y031057D03*
X059017Y032357D03*
X058017Y031057D03*
X057017Y032357D03*
X056017Y031057D03*
X049017Y032357D03*
X048017Y031057D03*
X047017Y032357D03*
X046017Y031057D03*
X045017Y032357D03*
X044017Y031057D03*
X037517Y032357D03*
X036517Y031057D03*
X035517Y032357D03*
X034517Y031057D03*
X033517Y032357D03*
X032517Y031057D03*
X025517Y032357D03*
X024517Y031057D03*
X023517Y032357D03*
X022517Y031057D03*
X021517Y032357D03*
X020517Y031057D03*
X025817Y016957D03*
X027817Y016957D03*
X029817Y016957D03*
X028817Y015657D03*
X026817Y015657D03*
X024817Y015657D03*
X025817Y008457D03*
X024817Y007157D03*
X026817Y007157D03*
X027817Y008457D03*
X028817Y007157D03*
X029817Y008457D03*
X036817Y007157D03*
X037817Y008457D03*
X038817Y007157D03*
X039817Y008457D03*
X040817Y007157D03*
X041817Y008457D03*
X048817Y007157D03*
X049817Y008457D03*
X050817Y007157D03*
X051817Y008457D03*
X052817Y007157D03*
X053817Y008457D03*
X060317Y007157D03*
X061317Y008457D03*
X062317Y007157D03*
X063317Y008457D03*
X064317Y007157D03*
X065317Y008457D03*
X072317Y007157D03*
X073317Y008457D03*
X074317Y007157D03*
X075317Y008457D03*
X076317Y007157D03*
X077317Y008457D03*
X075817Y015657D03*
X073817Y015657D03*
X071817Y015657D03*
X072817Y016957D03*
X074817Y016957D03*
X076817Y016957D03*
X064817Y016957D03*
X062817Y016957D03*
X060817Y016957D03*
X059817Y015657D03*
X061817Y015657D03*
X063817Y015657D03*
X053117Y016957D03*
X051117Y016957D03*
X049117Y016957D03*
X048117Y015657D03*
X050117Y015657D03*
X052117Y015657D03*
X041317Y016957D03*
X039317Y016957D03*
X037317Y016957D03*
X036317Y015657D03*
X038317Y015657D03*
X040317Y015657D03*
D31*
X043679Y015365D03*
X043679Y014365D03*
X043679Y013365D03*
X043679Y012365D03*
X043679Y011365D03*
X043679Y010365D03*
X043679Y009365D03*
X043679Y008365D03*
X043679Y007365D03*
X043679Y006365D03*
X046679Y006365D03*
X046679Y007365D03*
X046679Y008365D03*
X046679Y009365D03*
X046679Y010365D03*
X046679Y011365D03*
X046679Y012365D03*
X046679Y013365D03*
X046679Y014365D03*
X046679Y015365D03*
X046679Y016365D03*
X046679Y017365D03*
X043679Y017365D03*
X043679Y018365D03*
X043679Y016365D03*
X034868Y016365D03*
X034868Y015365D03*
X034868Y014365D03*
X034868Y013365D03*
X034868Y012365D03*
X034868Y011365D03*
X034868Y010365D03*
X034868Y009365D03*
X034868Y008365D03*
X034868Y007365D03*
X034868Y006365D03*
X031868Y006365D03*
X031868Y007365D03*
X031868Y008365D03*
X031868Y009365D03*
X031868Y010365D03*
X031868Y011365D03*
X031868Y012365D03*
X031868Y013365D03*
X031868Y014365D03*
X031868Y015365D03*
X031868Y016365D03*
X031868Y017365D03*
X031868Y018365D03*
X034868Y017365D03*
X023057Y017365D03*
X023057Y016365D03*
X023057Y015365D03*
X023057Y014365D03*
X023057Y013365D03*
X023057Y012365D03*
X023057Y011365D03*
X023057Y010365D03*
X023057Y009365D03*
X023057Y008365D03*
X023057Y007365D03*
X023057Y006365D03*
X020057Y006365D03*
X020057Y007365D03*
X020057Y008365D03*
X020057Y009365D03*
X020057Y010365D03*
X020057Y011365D03*
X020057Y012365D03*
X020057Y013365D03*
X020057Y014365D03*
X020057Y015365D03*
X020057Y016365D03*
X020057Y017365D03*
X020057Y018365D03*
X018805Y029987D03*
X018805Y030987D03*
X018805Y031987D03*
X018805Y032987D03*
X018805Y033987D03*
X018805Y034987D03*
X018805Y035987D03*
X018805Y036987D03*
X018805Y037987D03*
X018805Y038987D03*
X018805Y039987D03*
X018805Y040987D03*
X018805Y041987D03*
X015805Y041987D03*
X015805Y040987D03*
X015805Y039987D03*
X015805Y038987D03*
X015805Y037987D03*
X015805Y036987D03*
X015805Y035987D03*
X015805Y034987D03*
X015805Y033987D03*
X015805Y032987D03*
X015805Y031987D03*
X015805Y030987D03*
X027616Y030987D03*
X027616Y031987D03*
X027616Y032987D03*
X027616Y033987D03*
X027616Y034987D03*
X027616Y035987D03*
X027616Y036987D03*
X027616Y037987D03*
X027616Y038987D03*
X027616Y039987D03*
X027616Y040987D03*
X027616Y041987D03*
X030616Y041987D03*
X030616Y040987D03*
X030616Y039987D03*
X030616Y038987D03*
X030616Y037987D03*
X030616Y036987D03*
X030616Y035987D03*
X030616Y034987D03*
X030616Y033987D03*
X030616Y032987D03*
X030616Y031987D03*
X030616Y030987D03*
X030616Y029987D03*
X039427Y030987D03*
X039427Y031987D03*
X039427Y032987D03*
X039427Y033987D03*
X039427Y034987D03*
X039427Y035987D03*
X039427Y036987D03*
X039427Y037987D03*
X039427Y038987D03*
X039427Y039987D03*
X039427Y040987D03*
X039427Y041987D03*
X042427Y041987D03*
X042427Y040987D03*
X042427Y039987D03*
X042427Y038987D03*
X042427Y037987D03*
X042427Y036987D03*
X042427Y035987D03*
X042427Y034987D03*
X042427Y033987D03*
X042427Y032987D03*
X042427Y031987D03*
X042427Y030987D03*
X042427Y029987D03*
X051238Y030987D03*
X051238Y031987D03*
X051238Y032987D03*
X051238Y033987D03*
X051238Y034987D03*
X051238Y035987D03*
X051238Y036987D03*
X051238Y037987D03*
X051238Y038987D03*
X051238Y039987D03*
X051238Y040987D03*
X051238Y041987D03*
X054238Y041987D03*
X054238Y040987D03*
X054238Y039987D03*
X054238Y038987D03*
X054238Y037987D03*
X054238Y036987D03*
X054238Y035987D03*
X054238Y034987D03*
X054238Y033987D03*
X054238Y032987D03*
X054238Y031987D03*
X054238Y030987D03*
X054238Y029987D03*
X063049Y030987D03*
X063049Y031987D03*
X063049Y032987D03*
X063049Y033987D03*
X063049Y034987D03*
X063049Y035987D03*
X063049Y036987D03*
X063049Y037987D03*
X063049Y038987D03*
X063049Y039987D03*
X063049Y040987D03*
X063049Y041987D03*
X066049Y041987D03*
X066049Y040987D03*
X066049Y039987D03*
X066049Y038987D03*
X066049Y037987D03*
X066049Y036987D03*
X066049Y035987D03*
X066049Y034987D03*
X066049Y033987D03*
X066049Y032987D03*
X066049Y031987D03*
X066049Y030987D03*
X066049Y029987D03*
X074860Y030987D03*
X074860Y031987D03*
X074860Y032987D03*
X074860Y033987D03*
X074860Y034987D03*
X074860Y035987D03*
X074860Y036987D03*
X074860Y037987D03*
X074860Y038987D03*
X074860Y039987D03*
X074860Y040987D03*
X074860Y041987D03*
X077860Y041987D03*
X077860Y040987D03*
X077860Y039987D03*
X077860Y038987D03*
X077860Y037987D03*
X077860Y036987D03*
X077860Y035987D03*
X077860Y034987D03*
X077860Y033987D03*
X077860Y032987D03*
X077860Y031987D03*
X077860Y030987D03*
X077860Y029987D03*
X079112Y018365D03*
X079112Y017365D03*
X079112Y016365D03*
X079112Y015365D03*
X079112Y014365D03*
X079112Y013365D03*
X079112Y012365D03*
X079112Y011365D03*
X079112Y010365D03*
X079112Y009365D03*
X079112Y008365D03*
X079112Y007365D03*
X079112Y006365D03*
X082112Y006365D03*
X082112Y007365D03*
X082112Y008365D03*
X082112Y009365D03*
X082112Y010365D03*
X082112Y011365D03*
X082112Y012365D03*
X082112Y013365D03*
X082112Y014365D03*
X082112Y015365D03*
X082112Y016365D03*
X082112Y017365D03*
X070301Y017365D03*
X070301Y016365D03*
X070301Y015365D03*
X070301Y014365D03*
X070301Y013365D03*
X070301Y012365D03*
X070301Y011365D03*
X070301Y010365D03*
X070301Y009365D03*
X070301Y008365D03*
X070301Y007365D03*
X070301Y006365D03*
X067301Y006365D03*
X067301Y007365D03*
X067301Y008365D03*
X067301Y009365D03*
X067301Y010365D03*
X067301Y011365D03*
X067301Y012365D03*
X067301Y013365D03*
X067301Y014365D03*
X067301Y015365D03*
X067301Y016365D03*
X067301Y017365D03*
X067301Y018365D03*
X058490Y017365D03*
X058490Y016365D03*
X058490Y015365D03*
X058490Y014365D03*
X058490Y013365D03*
X058490Y012365D03*
X058490Y011365D03*
X058490Y010365D03*
X058490Y009365D03*
X058490Y008365D03*
X058490Y007365D03*
X058490Y006365D03*
X055490Y006365D03*
X055490Y007365D03*
X055490Y008365D03*
X055490Y009365D03*
X055490Y010365D03*
X055490Y011365D03*
X055490Y012365D03*
X055490Y013365D03*
X055490Y014365D03*
X055490Y015365D03*
X055490Y016365D03*
X055490Y017365D03*
X055490Y018365D03*
D32*
X058490Y018365D03*
X070301Y018365D03*
X082112Y018365D03*
X074860Y029987D03*
X063049Y029987D03*
X051238Y029987D03*
X039427Y029987D03*
X027616Y029987D03*
X015805Y029987D03*
X023057Y018365D03*
X034868Y018365D03*
X046679Y018365D03*
D33*
X046120Y022754D03*
X047620Y024154D03*
X049120Y025554D03*
X050620Y024154D03*
X052120Y022754D03*
X058120Y022754D03*
X059620Y024154D03*
X061120Y025554D03*
X062620Y024154D03*
X064120Y022754D03*
X070120Y022754D03*
X071620Y024154D03*
X073120Y025554D03*
X074620Y024154D03*
X076120Y022754D03*
X083420Y025554D03*
X084920Y024154D03*
X086420Y022754D03*
X084920Y019254D03*
X083420Y015354D03*
X083120Y003154D03*
X084620Y001754D03*
X073120Y001754D03*
X071620Y003154D03*
X061120Y001754D03*
X059620Y003154D03*
X049120Y001754D03*
X047620Y003154D03*
X037620Y001754D03*
X036120Y003154D03*
X025620Y001754D03*
X024120Y003154D03*
X022120Y022754D03*
X023620Y024154D03*
X025120Y025554D03*
X026620Y024154D03*
X028120Y022754D03*
X034120Y022754D03*
X035620Y024154D03*
X037120Y025554D03*
X038620Y024154D03*
X040120Y022754D03*
X014620Y022754D03*
X014620Y024154D03*
X014620Y045354D03*
X013120Y046754D03*
X025120Y046754D03*
X026620Y045354D03*
X036620Y046754D03*
X038120Y045354D03*
X048620Y046754D03*
X050120Y045354D03*
X060620Y046754D03*
X062120Y045354D03*
X072120Y046754D03*
X073620Y045354D03*
X081620Y045354D03*
D34*
X081920Y045054D03*
X081920Y045654D03*
X081320Y045654D03*
X081320Y045054D03*
X073920Y045054D03*
X073920Y045654D03*
X073320Y045654D03*
X073320Y045054D03*
X072420Y046454D03*
X072420Y047054D03*
X071820Y047054D03*
X071820Y046454D03*
X062420Y045654D03*
X062420Y045054D03*
X061820Y045054D03*
X061820Y045654D03*
X060920Y046454D03*
X060920Y047054D03*
X060320Y047054D03*
X060320Y046454D03*
X050420Y045654D03*
X050420Y045054D03*
X049820Y045054D03*
X049820Y045654D03*
X048920Y046454D03*
X048920Y047054D03*
X048320Y047054D03*
X048320Y046454D03*
X038420Y045654D03*
X038420Y045054D03*
X037820Y045054D03*
X037820Y045654D03*
X036920Y046454D03*
X036920Y047054D03*
X036320Y047054D03*
X036320Y046454D03*
X026920Y045654D03*
X026920Y045054D03*
X026320Y045054D03*
X026320Y045654D03*
X025420Y046454D03*
X025420Y047054D03*
X024820Y047054D03*
X024820Y046454D03*
X014920Y045654D03*
X014920Y045054D03*
X014320Y045054D03*
X014320Y045654D03*
X013420Y046454D03*
X013420Y047054D03*
X012820Y047054D03*
X012820Y046454D03*
X024820Y025854D03*
X025420Y025854D03*
X025420Y025254D03*
X024820Y025254D03*
X023920Y024454D03*
X023320Y024454D03*
X023320Y023854D03*
X023920Y023854D03*
X022420Y023054D03*
X022420Y022454D03*
X021820Y022454D03*
X021820Y023054D03*
X026320Y023854D03*
X026920Y023854D03*
X027820Y023054D03*
X028420Y023054D03*
X028420Y022454D03*
X027820Y022454D03*
X026920Y024454D03*
X026320Y024454D03*
X033820Y023054D03*
X034420Y023054D03*
X034420Y022454D03*
X033820Y022454D03*
X035320Y023854D03*
X035920Y023854D03*
X035920Y024454D03*
X035320Y024454D03*
X036820Y025254D03*
X037420Y025254D03*
X037420Y025854D03*
X036820Y025854D03*
X038320Y024454D03*
X038920Y024454D03*
X038920Y023854D03*
X038320Y023854D03*
X039820Y023054D03*
X040420Y023054D03*
X040420Y022454D03*
X039820Y022454D03*
X045820Y022454D03*
X046420Y022454D03*
X046420Y023054D03*
X045820Y023054D03*
X047320Y023854D03*
X047920Y023854D03*
X047920Y024454D03*
X047320Y024454D03*
X048820Y025254D03*
X049420Y025254D03*
X049420Y025854D03*
X048820Y025854D03*
X050320Y024454D03*
X050920Y024454D03*
X050920Y023854D03*
X050320Y023854D03*
X051820Y023054D03*
X052420Y023054D03*
X052420Y022454D03*
X051820Y022454D03*
X057820Y022454D03*
X058420Y022454D03*
X058420Y023054D03*
X057820Y023054D03*
X059320Y023854D03*
X059920Y023854D03*
X059920Y024454D03*
X059320Y024454D03*
X060820Y025254D03*
X061420Y025254D03*
X061420Y025854D03*
X060820Y025854D03*
X062320Y024454D03*
X062920Y024454D03*
X062920Y023854D03*
X062320Y023854D03*
X063820Y023054D03*
X064420Y023054D03*
X064420Y022454D03*
X063820Y022454D03*
X069820Y022454D03*
X070420Y022454D03*
X070420Y023054D03*
X069820Y023054D03*
X071320Y023854D03*
X071920Y023854D03*
X071920Y024454D03*
X071320Y024454D03*
X072820Y025254D03*
X073420Y025254D03*
X073420Y025854D03*
X072820Y025854D03*
X074320Y024454D03*
X074920Y024454D03*
X074920Y023854D03*
X074320Y023854D03*
X075820Y023054D03*
X076420Y023054D03*
X076420Y022454D03*
X075820Y022454D03*
X083120Y025254D03*
X083720Y025254D03*
X083720Y025854D03*
X083120Y025854D03*
X084620Y024454D03*
X085220Y024454D03*
X085220Y023854D03*
X084620Y023854D03*
X086120Y023054D03*
X086720Y023054D03*
X086720Y022454D03*
X086120Y022454D03*
X085220Y019554D03*
X084620Y019554D03*
X084620Y018954D03*
X085220Y018954D03*
X083720Y015654D03*
X083720Y015054D03*
X083120Y015054D03*
X083120Y015654D03*
X082820Y003454D03*
X083420Y003454D03*
X083420Y002854D03*
X082820Y002854D03*
X084320Y002054D03*
X084920Y002054D03*
X084920Y001454D03*
X084320Y001454D03*
X073420Y001454D03*
X073420Y002054D03*
X072820Y002054D03*
X072820Y001454D03*
X071920Y002854D03*
X071920Y003454D03*
X071320Y003454D03*
X071320Y002854D03*
X061420Y002054D03*
X061420Y001454D03*
X060820Y001454D03*
X060820Y002054D03*
X059920Y002854D03*
X059920Y003454D03*
X059320Y003454D03*
X059320Y002854D03*
X049420Y002054D03*
X049420Y001454D03*
X048820Y001454D03*
X048820Y002054D03*
X047920Y002854D03*
X047920Y003454D03*
X047320Y003454D03*
X047320Y002854D03*
X037920Y002054D03*
X037920Y001454D03*
X037320Y001454D03*
X037320Y002054D03*
X036420Y002854D03*
X036420Y003454D03*
X035820Y003454D03*
X035820Y002854D03*
X025920Y002054D03*
X025920Y001454D03*
X025320Y001454D03*
X025320Y002054D03*
X024420Y002854D03*
X024420Y003454D03*
X023820Y003454D03*
X023820Y002854D03*
X014920Y022454D03*
X014920Y023054D03*
X014320Y023054D03*
X014320Y022454D03*
X014320Y023854D03*
X014920Y023854D03*
X014920Y024454D03*
X014320Y024454D03*
D35*
X016420Y026754D03*
X017420Y027954D03*
X016620Y028554D03*
X018420Y028554D03*
X019020Y027954D03*
X020420Y027354D03*
X019620Y026754D03*
X026620Y027954D03*
X028620Y028554D03*
X029220Y027354D03*
X029820Y026754D03*
X033320Y021554D03*
X034020Y020954D03*
X034920Y020354D03*
X032720Y019754D03*
X023020Y020354D03*
X022120Y020954D03*
X021420Y021554D03*
X019020Y021554D03*
X018387Y020974D03*
X019620Y019754D03*
X020420Y019154D03*
X015120Y017454D03*
X014820Y018554D03*
X013420Y015554D03*
X011920Y015254D03*
X010320Y014454D03*
X009920Y015754D03*
X014920Y014254D03*
X010820Y012154D03*
X010720Y011054D03*
X013120Y010054D03*
X014220Y009554D03*
X015020Y009254D03*
X014820Y010454D03*
X013120Y009054D03*
X012220Y009054D03*
X012120Y007654D03*
X013520Y007354D03*
X014120Y006554D03*
X013320Y006054D03*
X013720Y005554D03*
X013020Y004754D03*
X013320Y004154D03*
X015954Y003313D03*
X016920Y003054D03*
X011220Y001754D03*
X009520Y004554D03*
X015020Y007554D03*
X018620Y008354D03*
X044620Y019754D03*
X045820Y020954D03*
X045220Y021554D03*
X046620Y020354D03*
X056420Y019754D03*
X057620Y020954D03*
X057020Y021554D03*
X058420Y020354D03*
X068220Y019754D03*
X069420Y020954D03*
X068820Y021554D03*
X070220Y020354D03*
X077420Y020354D03*
X080120Y021554D03*
X081220Y020954D03*
X087409Y017365D03*
X076220Y028354D03*
X079020Y032954D03*
X086820Y034654D03*
X081620Y045054D03*
X063820Y028554D03*
X064620Y027354D03*
X065220Y026754D03*
X062220Y027954D03*
X053420Y026754D03*
X052820Y027354D03*
X052020Y028554D03*
X050420Y027954D03*
X041620Y026754D03*
X041020Y027354D03*
X040220Y028554D03*
X038620Y027954D03*
D36*
X010920Y005454D03*
D37*
X009588Y002523D03*
X009588Y045830D03*
X088328Y045830D03*
X088328Y002523D03*
M02*
