%
M48
M72
T01C0.0118
T02C0.0236
T03C0.0354
T04C0.0394
T05C0.0400
T06C0.1260
%
T01
X10920Y5454
X23820Y3454
X24120Y3154
X24420Y2854
X24420Y3454
X23820Y2854
X25320Y2054
X25620Y1754
X25920Y1454
X25920Y2054
X25320Y1454
X35820Y2854
X36120Y3154
X36420Y2854
X36420Y3454
X35820Y3454
X37320Y2054
X37620Y1754
X37920Y1454
X37920Y2054
X37320Y1454
X47320Y2854
X47620Y3154
X47920Y2854
X47920Y3454
X47320Y3454
X48820Y2054
X49120Y1754
X49420Y1454
X49420Y2054
X48820Y1454
X59320Y2854
X59620Y3154
X59920Y2854
X59920Y3454
X59320Y3454
X60820Y2054
X61120Y1754
X61420Y1454
X61420Y2054
X60820Y1454
X71320Y2854
X71620Y3154
X71920Y2854
X71920Y3454
X71320Y3454
X72820Y2054
X73120Y1754
X73420Y1454
X73420Y2054
X72820Y1454
X82820Y2854
X83120Y3154
X83420Y2854
X83420Y3454
X82820Y3454
X84320Y2054
X84620Y1754
X84920Y1454
X84920Y2054
X84320Y1454
X83720Y15054
X83420Y15354
X83720Y15654
X83120Y15654
X83120Y15054
X84620Y18954
X84920Y19254
X85220Y18954
X85220Y19554
X84620Y19554
X86120Y22454
X86420Y22754
X86720Y22454
X86720Y23054
X86120Y23054
X85220Y23854
X84920Y24154
X85220Y24454
X84620Y24454
X83720Y25254
X83420Y25554
X83720Y25854
X83120Y25854
X83120Y25254
X84620Y23854
X76420Y23054
X76120Y22754
X76420Y22454
X75820Y22454
X75820Y23054
X74920Y23854
X74620Y24154
X74920Y24454
X74320Y24454
X73420Y25254
X73120Y25554
X73420Y25854
X72820Y25854
X72820Y25254
X71920Y24454
X71620Y24154
X71920Y23854
X71320Y23854
X70420Y23054
X70120Y22754
X70420Y22454
X69820Y22454
X69820Y23054
X71320Y24454
X74320Y23854
X64420Y23054
X64120Y22754
X64420Y22454
X63820Y22454
X63820Y23054
X62920Y23854
X62620Y24154
X62920Y24454
X62320Y24454
X61420Y25254
X61120Y25554
X61420Y25854
X60820Y25854
X60820Y25254
X59920Y24454
X59620Y24154
X59920Y23854
X59320Y23854
X58420Y23054
X58120Y22754
X58420Y22454
X57820Y22454
X57820Y23054
X59320Y24454
X62320Y23854
X52420Y23054
X52120Y22754
X52420Y22454
X51820Y22454
X51820Y23054
X50920Y23854
X50620Y24154
X50920Y24454
X50320Y24454
X49420Y25254
X49120Y25554
X49420Y25854
X48820Y25854
X48820Y25254
X47920Y24454
X47620Y24154
X47920Y23854
X47320Y23854
X46420Y23054
X46120Y22754
X46420Y22454
X45820Y22454
X45820Y23054
X47320Y24454
X50320Y23854
X40420Y23054
X40120Y22754
X40420Y22454
X39820Y22454
X39820Y23054
X38920Y23854
X38620Y24154
X38920Y24454
X38320Y24454
X37420Y25254
X37120Y25554
X37420Y25854
X36820Y25854
X36820Y25254
X35920Y24454
X35620Y24154
X35920Y23854
X35320Y23854
X34420Y23054
X34120Y22754
X34420Y22454
X33820Y22454
X33820Y23054
X35320Y24454
X38320Y23854
X28420Y23054
X28120Y22754
X28420Y22454
X27820Y22454
X27820Y23054
X26920Y23854
X26620Y24154
X26920Y24454
X26320Y24454
X25420Y25254
X25120Y25554
X25420Y25854
X24820Y25854
X24820Y25254
X23920Y24454
X23620Y24154
X23920Y23854
X23320Y23854
X22420Y23054
X22120Y22754
X22420Y22454
X21820Y22454
X21820Y23054
X23320Y24454
X26320Y23854
X14920Y23854
X14620Y24154
X14920Y24454
X14320Y24454
X14320Y23854
X14320Y23054
X14620Y22754
X14920Y22454
X14920Y23054
X14320Y22454
X14320Y45054
X14620Y45354
X14920Y45054
X14920Y45654
X14320Y45654
X13420Y46454
X13120Y46754
X13420Y47054
X12820Y47054
X12820Y46454
X24820Y46454
X25120Y46754
X25420Y46454
X25420Y47054
X24820Y47054
X26320Y45654
X26620Y45354
X26920Y45054
X26920Y45654
X26320Y45054
X36320Y46454
X36620Y46754
X36920Y46454
X36920Y47054
X36320Y47054
X37820Y45654
X38120Y45354
X38420Y45054
X38420Y45654
X37820Y45054
X48320Y46454
X48620Y46754
X48920Y46454
X48920Y47054
X48320Y47054
X49820Y45654
X50120Y45354
X50420Y45054
X50420Y45654
X49820Y45054
X60320Y46454
X60620Y46754
X60920Y46454
X60920Y47054
X60320Y47054
X61820Y45654
X62120Y45354
X62420Y45054
X62420Y45654
X61820Y45054
X71820Y46454
X72120Y46754
X72420Y46454
X72420Y47054
X71820Y47054
X73320Y45654
X73620Y45354
X73920Y45054
X73920Y45654
X73320Y45054
X81320Y45054
X81620Y45354
X81920Y45054
X81920Y45654
X81320Y45654
T02
X81620Y45054
X86820Y34654
X79020Y32954
X76220Y28354
X65220Y26754
X64620Y27354
X63820Y28554
X62220Y27954
X53420Y26754
X52820Y27354
X52020Y28554
X50420Y27954
X41620Y26754
X41020Y27354
X40220Y28554
X38620Y27954
X29820Y26754
X29220Y27354
X28620Y28554
X26620Y27954
X20420Y27354
X19620Y26754
X19020Y27954
X18420Y28554
X17420Y27954
X16620Y28554
X16420Y26754
X19020Y21554
X18387Y20974
X19620Y19754
X20420Y19154
X22120Y20954
X21420Y21554
X23020Y20354
X14820Y18554
X15120Y17454
X13420Y15554
X11920Y15254
X10320Y14454
X9920Y15754
X14920Y14254
X10820Y12154
X10720Y11054
X13120Y10054
X14220Y9554
X15020Y9254
X14820Y10454
X13120Y9054
X12220Y9054
X12120Y7654
X13520Y7354
X14120Y6554
X13320Y6054
X13720Y5554
X13020Y4754
X13320Y4154
X15954Y3313
X16920Y3054
X11220Y1754
X9520Y4554
X15020Y7554
X18620Y8354
X32720Y19754
X34020Y20954
X33320Y21554
X34920Y20354
X44620Y19754
X45820Y20954
X45220Y21554
X46620Y20354
X56420Y19754
X57620Y20954
X57020Y21554
X58420Y20354
X68220Y19754
X69420Y20954
X68820Y21554
X70220Y20354
X77420Y20354
X80120Y21554
X81220Y20954
X87409Y17365
T03
X9620Y7420
X9620Y5688
T04
X12620Y2554
X13620Y2554
X14620Y2554
X14620Y1554
X13620Y1554
X12620Y1554
X20057Y6365
X20057Y7365
X20057Y8365
X20057Y9365
X20057Y10365
X20057Y11365
X20057Y12365
X20057Y13365
X20057Y14365
X20057Y15365
X20057Y16365
X20057Y17365
X20057Y18365
X23057Y18365
X23057Y17365
X23057Y16365
X23057Y15365
X23057Y14365
X23057Y13365
X23057Y12365
X23057Y11365
X23057Y10365
X23057Y9365
X23057Y8365
X23057Y7365
X23057Y6365
X31868Y6365
X31868Y7365
X31868Y8365
X31868Y9365
X31868Y10365
X31868Y11365
X31868Y12365
X31868Y13365
X31868Y14365
X31868Y15365
X31868Y16365
X31868Y17365
X31868Y18365
X34868Y18365
X34868Y17365
X34868Y16365
X34868Y15365
X34868Y14365
X34868Y13365
X34868Y12365
X34868Y11365
X34868Y10365
X34868Y9365
X34868Y8365
X34868Y7365
X34868Y6365
X43679Y6365
X43679Y7365
X43679Y8365
X43679Y9365
X43679Y10365
X43679Y11365
X43679Y12365
X43679Y13365
X43679Y14365
X43679Y15365
X43679Y16365
X43679Y17365
X43679Y18365
X46679Y18365
X46679Y17365
X46679Y16365
X46679Y15365
X46679Y14365
X46679Y13365
X46679Y12365
X46679Y11365
X46679Y10365
X46679Y9365
X46679Y8365
X46679Y7365
X46679Y6365
X55490Y6365
X55490Y7365
X55490Y8365
X55490Y9365
X55490Y10365
X55490Y11365
X55490Y12365
X55490Y13365
X55490Y14365
X55490Y15365
X55490Y16365
X55490Y17365
X55490Y18365
X58490Y18365
X58490Y17365
X58490Y16365
X58490Y15365
X58490Y14365
X58490Y13365
X58490Y12365
X58490Y11365
X58490Y10365
X58490Y9365
X58490Y8365
X58490Y7365
X58490Y6365
X67301Y6365
X67301Y7365
X67301Y8365
X67301Y9365
X67301Y10365
X67301Y11365
X67301Y12365
X67301Y13365
X67301Y14365
X67301Y15365
X67301Y16365
X67301Y17365
X67301Y18365
X70301Y18365
X70301Y17365
X70301Y16365
X70301Y15365
X70301Y14365
X70301Y13365
X70301Y12365
X70301Y11365
X70301Y10365
X70301Y9365
X70301Y8365
X70301Y7365
X70301Y6365
X79112Y6365
X79112Y7365
X79112Y8365
X79112Y9365
X79112Y10365
X79112Y11365
X79112Y12365
X79112Y13365
X79112Y14365
X79112Y15365
X79112Y16365
X79112Y17365
X79112Y18365
X82112Y18365
X82112Y17365
X82112Y16365
X82112Y15365
X82112Y14365
X82112Y13365
X82112Y12365
X82112Y11365
X82112Y10365
X82112Y9365
X82112Y8365
X82112Y7365
X82112Y6365
X88120Y10054
X89120Y10054
X89106Y8654
X89106Y7654
X89106Y6654
X89120Y11554
X88120Y11554
X88120Y13054
X89120Y13054
X89120Y15296
X89120Y17265
X89120Y19233
X89120Y21202
X89120Y23170
X89120Y25139
X89120Y27107
X89120Y29076
X89120Y31044
X89120Y33013
X89120Y36141
X89120Y37141
X89120Y40054
X89120Y41054
X89120Y42054
X77860Y41987
X77860Y40987
X77860Y39987
X77860Y38987
X77860Y37987
X77860Y36987
X77860Y35987
X77860Y34987
X77860Y33987
X77860Y32987
X77860Y31987
X77860Y30987
X77860Y29987
X74860Y29987
X74860Y30987
X74860Y31987
X74860Y32987
X74860Y33987
X74860Y34987
X74860Y35987
X74860Y36987
X74860Y37987
X74860Y38987
X74860Y39987
X74860Y40987
X74860Y41987
X66049Y41987
X66049Y40987
X66049Y39987
X66049Y38987
X66049Y37987
X66049Y36987
X66049Y35987
X66049Y34987
X66049Y33987
X66049Y32987
X66049Y31987
X66049Y30987
X66049Y29987
X63049Y29987
X63049Y30987
X63049Y31987
X63049Y32987
X63049Y33987
X63049Y34987
X63049Y35987
X63049Y36987
X63049Y37987
X63049Y38987
X63049Y39987
X63049Y40987
X63049Y41987
X54238Y41987
X54238Y40987
X54238Y39987
X54238Y38987
X54238Y37987
X54238Y36987
X54238Y35987
X54238Y34987
X54238Y33987
X54238Y32987
X54238Y31987
X54238Y30987
X54238Y29987
X51238Y29987
X51238Y30987
X51238Y31987
X51238Y32987
X51238Y33987
X51238Y34987
X51238Y35987
X51238Y36987
X51238Y37987
X51238Y38987
X51238Y39987
X51238Y40987
X51238Y41987
X42427Y41987
X42427Y40987
X42427Y39987
X42427Y38987
X42427Y37987
X42427Y36987
X42427Y35987
X42427Y34987
X42427Y33987
X42427Y32987
X42427Y31987
X42427Y30987
X42427Y29987
X39427Y29987
X39427Y30987
X39427Y31987
X39427Y32987
X39427Y33987
X39427Y34987
X39427Y35987
X39427Y36987
X39427Y37987
X39427Y38987
X39427Y39987
X39427Y40987
X39427Y41987
X30616Y41987
X30616Y40987
X30616Y39987
X30616Y38987
X30616Y37987
X30616Y36987
X30616Y35987
X30616Y34987
X30616Y33987
X30616Y32987
X30616Y31987
X30616Y30987
X30616Y29987
X27616Y29987
X27616Y30987
X27616Y31987
X27616Y32987
X27616Y33987
X27616Y34987
X27616Y35987
X27616Y36987
X27616Y37987
X27616Y38987
X27616Y39987
X27616Y40987
X27616Y41987
X18805Y41987
X18805Y40987
X18805Y39987
X18805Y38987
X18805Y37987
X18805Y36987
X18805Y35987
X18805Y34987
X18805Y33987
X18805Y32987
X18805Y31987
X18805Y30987
X18805Y29987
X15805Y29987
X15805Y30987
X15805Y31987
X15805Y32987
X15805Y33987
X15805Y34987
X15805Y35987
X15805Y36987
X15805Y37987
X15805Y38987
X15805Y39987
X15805Y40987
X15805Y41987
X10206Y27754
X9206Y27754
X9206Y26754
X10206Y26754
X10206Y25754
X9206Y25754
X9206Y24754
X10206Y24754
X10206Y23754
X9206Y23754
X9206Y22754
X9206Y21754
X10206Y21754
X10206Y22754
X10206Y20754
X9206Y20754
X8633Y17854
X8633Y16854
X8633Y15854
X8633Y14854
X8633Y13854
X8633Y12854
T05
X8500Y10991
X9640Y10991
X9620Y9568
X10620Y9568
X8620Y9568
X16120Y1554
X17120Y1554
X18120Y1554
X87133Y38654
X88133Y38654
X89133Y38654
X89190Y43368
X88050Y43368
X88060Y5000
X89200Y5000
T06
X9588Y2523
X28289Y5476
X51911Y5476
X75533Y5476
X88328Y2523
X69627Y42877
X88328Y45830
X46005Y42877
X22383Y42877
X9588Y45830
M30
