G75*
G70*
%OFA0B0*%
%FSLAX24Y24*%
%IPPOS*%
%LPD*%
%AMOC8*
5,1,8,0,0,1.08239X$1,22.5*
%
%ADD10C,0.0060*%
%ADD11C,0.0070*%
%ADD12C,0.0080*%
%ADD13C,0.0348*%
%ADD14C,0.0050*%
%ADD15C,0.0100*%
D10*
X017455Y002098D02*
X017455Y002538D01*
X017749Y002538D02*
X017455Y002098D01*
X017749Y002098D02*
X017749Y002538D01*
X017916Y002465D02*
X017989Y002538D01*
X018136Y002538D01*
X018209Y002465D01*
X018209Y002171D01*
X018136Y002098D01*
X017989Y002098D01*
X017916Y002171D01*
X017916Y002465D01*
X018376Y002538D02*
X018670Y002538D01*
X018523Y002538D02*
X018523Y002098D01*
X018836Y002171D02*
X018910Y002098D01*
X019130Y002098D01*
X019130Y002538D01*
X018910Y002538D01*
X018836Y002465D01*
X018836Y002392D01*
X018910Y002318D01*
X019130Y002318D01*
X019297Y002318D02*
X019370Y002245D01*
X019590Y002245D01*
X019444Y002245D02*
X019297Y002098D01*
X019297Y002318D02*
X019297Y002465D01*
X019370Y002538D01*
X019590Y002538D01*
X019590Y002098D01*
X018910Y002318D02*
X018836Y002245D01*
X018836Y002171D01*
X084175Y037820D02*
X084249Y037747D01*
X084395Y037747D01*
X084469Y037820D01*
X084322Y037967D02*
X084249Y037967D01*
X084175Y037894D01*
X084175Y037820D01*
X084249Y037967D02*
X084175Y038040D01*
X084175Y038114D01*
X084249Y038187D01*
X084395Y038187D01*
X084469Y038114D01*
X084635Y038187D02*
X084929Y038187D01*
X084782Y038187D02*
X084782Y037747D01*
X085096Y037820D02*
X085169Y037747D01*
X085316Y037747D01*
X085389Y037820D01*
X085316Y037967D02*
X085169Y037967D01*
X085096Y037894D01*
X085096Y037820D01*
X085316Y037967D02*
X085389Y038040D01*
X085389Y038114D01*
X085316Y038187D01*
X085169Y038187D01*
X085096Y038114D01*
X085556Y038114D02*
X085556Y037967D01*
X085630Y037894D01*
X085850Y037894D01*
X085703Y037894D02*
X085556Y037747D01*
X085850Y037747D02*
X085850Y038187D01*
X085630Y038187D01*
X085556Y038114D01*
X086016Y038114D02*
X086016Y037967D01*
X086090Y037894D01*
X086310Y037894D01*
X086163Y037894D02*
X086016Y037747D01*
X086310Y037747D02*
X086310Y038187D01*
X086090Y038187D01*
X086016Y038114D01*
X089312Y037956D02*
X089903Y037956D01*
X089972Y037670D02*
X090045Y037670D01*
X090118Y037596D01*
X090118Y037450D01*
X090045Y037376D01*
X090118Y037209D02*
X090118Y036916D01*
X090118Y037063D02*
X089678Y037063D01*
X089678Y037376D02*
X089972Y037670D01*
X089678Y037670D02*
X089678Y037376D01*
X089751Y036749D02*
X090045Y036749D01*
X090118Y036676D01*
X090118Y036529D01*
X090045Y036456D01*
X089751Y036456D01*
X089678Y036529D01*
X089678Y036676D01*
X089751Y036749D01*
X089751Y036289D02*
X090045Y036289D01*
X090118Y036215D01*
X090118Y036069D01*
X090045Y035995D01*
X089751Y035995D01*
X089678Y036069D01*
X089678Y036215D01*
X089751Y036289D01*
X089751Y035828D02*
X089678Y035755D01*
X089678Y035535D01*
X090118Y035535D01*
X090118Y035755D01*
X090045Y035828D01*
X089972Y035828D01*
X089898Y035755D01*
X089898Y035535D01*
X089898Y035368D02*
X089825Y035295D01*
X089825Y035074D01*
X089678Y035074D02*
X090118Y035074D01*
X090118Y035295D01*
X090045Y035368D01*
X089898Y035368D01*
X089825Y035221D02*
X089678Y035368D01*
X089898Y035755D02*
X089825Y035828D01*
X089751Y035828D01*
D11*
X088382Y035104D02*
X087891Y035104D01*
X087891Y034859D01*
X087973Y034777D01*
X088136Y034777D01*
X088218Y034859D01*
X088218Y035104D01*
X088218Y034940D02*
X088382Y034777D01*
X088382Y034588D02*
X087891Y034588D01*
X087891Y034343D01*
X087973Y034261D01*
X088136Y034261D01*
X088218Y034343D01*
X088218Y034588D01*
X088218Y034425D02*
X088382Y034261D01*
X088300Y034072D02*
X088382Y033991D01*
X088382Y033827D01*
X088300Y033746D01*
X088218Y033746D01*
X088136Y033827D01*
X088136Y033991D01*
X088055Y034072D01*
X087973Y034072D01*
X087891Y033991D01*
X087891Y033827D01*
X087973Y033746D01*
X087891Y033557D02*
X087891Y033230D01*
X087891Y033393D02*
X088382Y033393D01*
X088382Y033041D02*
X088382Y032714D01*
X088382Y032878D02*
X087891Y032878D01*
X088055Y033041D01*
X087395Y036275D02*
X087231Y036275D01*
X087150Y036356D01*
X086961Y036275D02*
X086961Y036765D01*
X086716Y036765D01*
X086634Y036683D01*
X086634Y036520D01*
X086716Y036438D01*
X086961Y036438D01*
X086797Y036438D02*
X086634Y036275D01*
X086445Y036356D02*
X086364Y036275D01*
X086200Y036275D01*
X086118Y036356D01*
X086118Y036438D01*
X086200Y036520D01*
X086364Y036520D01*
X086445Y036601D01*
X086445Y036683D01*
X086364Y036765D01*
X086200Y036765D01*
X086118Y036683D01*
X085930Y036765D02*
X085603Y036765D01*
X085766Y036765D02*
X085766Y036275D01*
X087150Y036683D02*
X087231Y036765D01*
X087395Y036765D01*
X087477Y036683D01*
X087477Y036356D01*
X087395Y036275D01*
X087362Y041763D02*
X087525Y041926D01*
X087443Y041926D02*
X087689Y041926D01*
X087689Y041763D02*
X087689Y042253D01*
X087443Y042253D01*
X087362Y042172D01*
X087362Y042008D01*
X087443Y041926D01*
X087173Y041845D02*
X087091Y041763D01*
X086928Y041763D01*
X086846Y041845D01*
X086657Y041763D02*
X086657Y042090D01*
X086494Y042253D01*
X086330Y042090D01*
X086330Y041763D01*
X086142Y041763D02*
X086142Y042253D01*
X085815Y041763D01*
X085815Y042253D01*
X085626Y042172D02*
X085544Y042253D01*
X085381Y042253D01*
X085299Y042172D01*
X085299Y042090D01*
X085626Y041763D01*
X085299Y041763D01*
X086330Y042008D02*
X086657Y042008D01*
X086846Y042172D02*
X086928Y042253D01*
X087091Y042253D01*
X087173Y042172D01*
X087173Y041845D01*
X067633Y037422D02*
X067633Y037176D01*
X067142Y037176D01*
X067306Y037176D02*
X067306Y037422D01*
X067387Y037503D01*
X067551Y037503D01*
X067633Y037422D01*
X067306Y037340D02*
X067142Y037503D01*
X067224Y036988D02*
X067306Y036988D01*
X067387Y036906D01*
X067387Y036661D01*
X067224Y036661D01*
X067142Y036743D01*
X067142Y036906D01*
X067224Y036988D01*
X067551Y036824D02*
X067633Y036988D01*
X067551Y036824D02*
X067387Y036661D01*
X067633Y036472D02*
X067633Y036145D01*
X067633Y036309D02*
X067142Y036309D01*
X067224Y035956D02*
X067142Y035875D01*
X067142Y035711D01*
X067224Y035630D01*
X067387Y035711D02*
X067387Y035875D01*
X067306Y035956D01*
X067224Y035956D01*
X067387Y035711D02*
X067469Y035630D01*
X067551Y035630D01*
X067633Y035711D01*
X067633Y035875D01*
X067551Y035956D01*
X067633Y035441D02*
X067633Y035114D01*
X067142Y035114D01*
X067142Y035441D01*
X067387Y035277D02*
X067387Y035114D01*
X067633Y034925D02*
X067633Y034598D01*
X067633Y034762D02*
X067142Y034762D01*
X067224Y034410D02*
X067633Y034410D01*
X067633Y034083D02*
X067224Y034083D01*
X067142Y034164D01*
X067142Y034328D01*
X067224Y034410D01*
X055633Y034498D02*
X055633Y034825D01*
X055633Y034662D02*
X055142Y034662D01*
X055142Y035014D02*
X055142Y035341D01*
X055224Y035530D02*
X055142Y035611D01*
X055142Y035775D01*
X055224Y035856D01*
X055306Y035856D01*
X055387Y035775D01*
X055387Y035611D01*
X055469Y035530D01*
X055551Y035530D01*
X055633Y035611D01*
X055633Y035775D01*
X055551Y035856D01*
X055633Y036045D02*
X055633Y036372D01*
X055633Y036209D02*
X055142Y036209D01*
X055224Y036561D02*
X055142Y036643D01*
X055142Y036806D01*
X055224Y036888D01*
X055387Y036888D01*
X055469Y036806D01*
X055469Y036724D01*
X055387Y036561D01*
X055633Y036561D01*
X055633Y036888D01*
X055633Y037076D02*
X055633Y037322D01*
X055551Y037403D01*
X055387Y037403D01*
X055306Y037322D01*
X055306Y037076D01*
X055142Y037076D02*
X055633Y037076D01*
X055306Y037240D02*
X055142Y037403D01*
X055633Y035341D02*
X055633Y035014D01*
X055142Y035014D01*
X055387Y035014D02*
X055387Y035177D01*
X055224Y034310D02*
X055142Y034228D01*
X055142Y034064D01*
X055224Y033983D01*
X055633Y033983D01*
X055633Y034310D02*
X055224Y034310D01*
X043633Y034310D02*
X043224Y034310D01*
X043142Y034228D01*
X043142Y034064D01*
X043224Y033983D01*
X043633Y033983D01*
X043633Y034498D02*
X043633Y034825D01*
X043633Y034662D02*
X043142Y034662D01*
X043142Y035014D02*
X043142Y035341D01*
X043224Y035530D02*
X043142Y035611D01*
X043142Y035775D01*
X043224Y035856D01*
X043306Y035856D01*
X043387Y035775D01*
X043387Y035611D01*
X043469Y035530D01*
X043551Y035530D01*
X043633Y035611D01*
X043633Y035775D01*
X043551Y035856D01*
X043633Y036045D02*
X043633Y036372D01*
X043633Y036209D02*
X043142Y036209D01*
X043387Y036561D02*
X043387Y036888D01*
X043306Y037076D02*
X043306Y037322D01*
X043387Y037403D01*
X043551Y037403D01*
X043633Y037322D01*
X043633Y037076D01*
X043142Y037076D01*
X043306Y037240D02*
X043142Y037403D01*
X043142Y036806D02*
X043633Y036806D01*
X043387Y036561D01*
X043633Y035341D02*
X043633Y035014D01*
X043142Y035014D01*
X043387Y035014D02*
X043387Y035177D01*
X032133Y035114D02*
X031642Y035114D01*
X031642Y035441D01*
X031724Y035630D02*
X031642Y035711D01*
X031642Y035875D01*
X031724Y035956D01*
X031806Y035956D01*
X031887Y035875D01*
X031887Y035711D01*
X031969Y035630D01*
X032051Y035630D01*
X032133Y035711D01*
X032133Y035875D01*
X032051Y035956D01*
X032133Y036145D02*
X032133Y036472D01*
X032133Y036309D02*
X031642Y036309D01*
X031724Y036661D02*
X031642Y036743D01*
X031642Y036906D01*
X031724Y036988D01*
X031806Y036988D01*
X031887Y036906D01*
X031887Y036824D01*
X031887Y036906D02*
X031969Y036988D01*
X032051Y036988D01*
X032133Y036906D01*
X032133Y036743D01*
X032051Y036661D01*
X032133Y037176D02*
X031642Y037176D01*
X031806Y037176D02*
X031806Y037422D01*
X031887Y037503D01*
X032051Y037503D01*
X032133Y037422D01*
X032133Y037176D01*
X031806Y037340D02*
X031642Y037503D01*
X032133Y035441D02*
X032133Y035114D01*
X032133Y034925D02*
X032133Y034598D01*
X032133Y034762D02*
X031642Y034762D01*
X031724Y034410D02*
X031642Y034328D01*
X031642Y034164D01*
X031724Y034083D01*
X032133Y034083D01*
X032133Y034410D02*
X031724Y034410D01*
X031887Y035114D02*
X031887Y035277D01*
X020133Y035114D02*
X019642Y035114D01*
X019642Y035441D01*
X019724Y035630D02*
X019642Y035711D01*
X019642Y035875D01*
X019724Y035956D01*
X019806Y035956D01*
X019887Y035875D01*
X019887Y035711D01*
X019969Y035630D01*
X020051Y035630D01*
X020133Y035711D01*
X020133Y035875D01*
X020051Y035956D01*
X020133Y036145D02*
X020133Y036472D01*
X020133Y036309D02*
X019642Y036309D01*
X019642Y036661D02*
X019969Y036988D01*
X020051Y036988D01*
X020133Y036906D01*
X020133Y036743D01*
X020051Y036661D01*
X019642Y036661D02*
X019642Y036988D01*
X019642Y037176D02*
X020133Y037176D01*
X020133Y037422D01*
X020051Y037503D01*
X019887Y037503D01*
X019806Y037422D01*
X019806Y037176D01*
X019806Y037340D02*
X019642Y037503D01*
X020133Y035441D02*
X020133Y035114D01*
X020133Y034925D02*
X020133Y034598D01*
X020133Y034762D02*
X019642Y034762D01*
X019724Y034410D02*
X020133Y034410D01*
X020133Y034083D02*
X019724Y034083D01*
X019642Y034164D01*
X019642Y034328D01*
X019724Y034410D01*
X019887Y035114D02*
X019887Y035277D01*
X013010Y017696D02*
X012519Y017696D01*
X012519Y017533D02*
X012519Y017860D01*
X012846Y017533D02*
X013010Y017696D01*
X012928Y017344D02*
X013010Y017263D01*
X013010Y017099D01*
X012928Y017017D01*
X012601Y017017D01*
X012519Y017099D01*
X012519Y017263D01*
X012601Y017344D01*
X012765Y017344D01*
X012765Y017181D01*
X013010Y016829D02*
X013010Y016502D01*
X012519Y016502D01*
X012519Y016829D01*
X012765Y016665D02*
X012765Y016502D01*
X012765Y016313D02*
X012683Y016231D01*
X012683Y015986D01*
X012519Y015986D02*
X013010Y015986D01*
X013010Y016231D01*
X012928Y016313D01*
X012765Y016313D01*
X012683Y016150D02*
X012519Y016313D01*
X012601Y015797D02*
X012519Y015716D01*
X012519Y015552D01*
X012601Y015470D01*
X012928Y015470D01*
X013010Y015552D01*
X013010Y015716D01*
X012928Y015797D01*
X011382Y015850D02*
X011382Y015604D01*
X010892Y015604D01*
X010892Y015850D01*
X010974Y015931D01*
X011301Y015931D01*
X011382Y015850D01*
X011301Y016120D02*
X011382Y016202D01*
X011382Y016365D01*
X011301Y016447D01*
X011219Y016447D01*
X011137Y016365D01*
X011055Y016447D01*
X010974Y016447D01*
X010892Y016365D01*
X010892Y016202D01*
X010974Y016120D01*
X011137Y016284D02*
X011137Y016365D01*
X010974Y015416D02*
X010892Y015334D01*
X010892Y015171D01*
X010974Y015089D01*
X011301Y015089D01*
X011382Y015171D01*
X011382Y015334D01*
X011301Y015416D01*
X015655Y015343D02*
X015655Y015180D01*
X015737Y015098D01*
X016064Y015098D01*
X016145Y015180D01*
X016145Y015343D01*
X016064Y015425D01*
X016064Y015614D02*
X015737Y015614D01*
X015655Y015695D01*
X015655Y015859D01*
X015737Y015940D01*
X015655Y016129D02*
X015982Y016129D01*
X016145Y016293D01*
X015982Y016456D01*
X015655Y016456D01*
X015655Y016645D02*
X016145Y016645D01*
X016145Y016890D01*
X016064Y016972D01*
X015900Y016972D01*
X015818Y016890D01*
X015818Y016645D01*
X015900Y016456D02*
X015900Y016129D01*
X016064Y015940D02*
X016145Y015859D01*
X016145Y015695D01*
X016064Y015614D01*
X015737Y015425D02*
X015655Y015343D01*
X015688Y013938D02*
X015688Y013775D01*
X015688Y013938D02*
X015525Y013938D01*
X015443Y013856D01*
X015443Y013693D01*
X015525Y013611D01*
X015852Y013611D01*
X015933Y013693D01*
X015933Y013856D01*
X015852Y013938D01*
X015933Y013423D02*
X015933Y013096D01*
X015443Y013096D01*
X015443Y013423D01*
X015688Y013259D02*
X015688Y013096D01*
X015688Y012907D02*
X015606Y012825D01*
X015606Y012580D01*
X015443Y012580D02*
X015933Y012580D01*
X015933Y012825D01*
X015852Y012907D01*
X015688Y012907D01*
X015606Y012743D02*
X015443Y012907D01*
X015525Y012391D02*
X015933Y012391D01*
X015933Y012064D02*
X015525Y012064D01*
X015443Y012146D01*
X015443Y012310D01*
X015525Y012391D01*
X015570Y011391D02*
X015897Y011391D01*
X015897Y010901D01*
X015570Y010901D01*
X015382Y010982D02*
X015300Y010901D01*
X015136Y010901D01*
X015055Y010982D01*
X015055Y011146D01*
X015218Y011146D01*
X015055Y011309D02*
X015136Y011391D01*
X015300Y011391D01*
X015382Y011309D01*
X015382Y010982D01*
X015734Y011146D02*
X015897Y011146D01*
X016086Y011146D02*
X016168Y011064D01*
X016413Y011064D01*
X016413Y010901D02*
X016413Y011391D01*
X016168Y011391D01*
X016086Y011309D01*
X016086Y011146D01*
X016249Y011064D02*
X016086Y010901D01*
X016601Y010982D02*
X016683Y010901D01*
X016847Y010901D01*
X016928Y010982D01*
X016928Y011309D01*
X016847Y011391D01*
X016683Y011391D01*
X016601Y011309D01*
X014866Y011309D02*
X014784Y011391D01*
X014621Y011391D01*
X014539Y011309D01*
X014539Y011227D01*
X014866Y010901D01*
X014539Y010901D01*
X015609Y006905D02*
X015609Y006578D01*
X015936Y006905D01*
X016017Y006905D01*
X016099Y006824D01*
X016099Y006660D01*
X016017Y006578D01*
X016017Y006390D02*
X015936Y006390D01*
X015854Y006308D01*
X015772Y006390D01*
X015690Y006390D01*
X015609Y006308D01*
X015609Y006144D01*
X015690Y006063D01*
X015609Y005874D02*
X015609Y005547D01*
X015936Y005874D01*
X016017Y005874D01*
X016099Y005792D01*
X016099Y005629D01*
X016017Y005547D01*
X016099Y005358D02*
X016099Y005031D01*
X016099Y005195D02*
X015609Y005195D01*
X015854Y004679D02*
X015854Y004516D01*
X016099Y004516D02*
X016099Y004843D01*
X016099Y004516D02*
X015609Y004516D01*
X015690Y004327D02*
X016099Y004327D01*
X016099Y004000D02*
X015690Y004000D01*
X015609Y004082D01*
X015609Y004245D01*
X015690Y004327D01*
X016017Y006063D02*
X016099Y006144D01*
X016099Y006308D01*
X016017Y006390D01*
X015854Y006308D02*
X015854Y006226D01*
X011865Y006180D02*
X011784Y006098D01*
X011702Y006098D01*
X011620Y006180D01*
X011620Y006343D01*
X011538Y006425D01*
X011457Y006425D01*
X011375Y006343D01*
X011375Y006180D01*
X011457Y006098D01*
X011457Y005909D02*
X011865Y005909D01*
X011865Y006180D02*
X011865Y006343D01*
X011784Y006425D01*
X011865Y006614D02*
X011375Y006614D01*
X011375Y006859D01*
X011457Y006941D01*
X011538Y006941D01*
X011620Y006859D01*
X011620Y006614D01*
X011620Y006859D02*
X011702Y006941D01*
X011784Y006941D01*
X011865Y006859D01*
X011865Y006614D01*
X011457Y005909D02*
X011375Y005828D01*
X011375Y005664D01*
X011457Y005583D01*
X011865Y005583D01*
X011865Y005394D02*
X011865Y005230D01*
X011865Y005312D02*
X011457Y005312D01*
X011375Y005230D01*
X011375Y005149D01*
X011457Y005067D01*
X024152Y010075D02*
X024152Y010239D01*
X024234Y010321D01*
X024643Y010321D01*
X024643Y010509D02*
X024643Y010836D01*
X024643Y010673D02*
X024152Y010673D01*
X024152Y011025D02*
X024152Y011352D01*
X024234Y011541D02*
X024152Y011622D01*
X024152Y011786D01*
X024234Y011867D01*
X024316Y011867D01*
X024398Y011786D01*
X024398Y011622D01*
X024479Y011541D01*
X024561Y011541D01*
X024643Y011622D01*
X024643Y011786D01*
X024561Y011867D01*
X024643Y012056D02*
X024643Y012383D01*
X024643Y012220D02*
X024152Y012220D01*
X024152Y012572D02*
X024479Y012899D01*
X024561Y012899D01*
X024643Y012817D01*
X024643Y012654D01*
X024561Y012572D01*
X024152Y012572D02*
X024152Y012899D01*
X024152Y013087D02*
X024152Y013414D01*
X024152Y013087D02*
X024643Y013087D01*
X024643Y011352D02*
X024643Y011025D01*
X024152Y011025D01*
X024398Y011025D02*
X024398Y011188D01*
X024152Y010075D02*
X024234Y009994D01*
X024643Y009994D01*
X035863Y010075D02*
X035863Y010239D01*
X035945Y010321D01*
X036354Y010321D01*
X036354Y010509D02*
X036354Y010836D01*
X036354Y010673D02*
X035863Y010673D01*
X035863Y011025D02*
X035863Y011352D01*
X035945Y011541D02*
X035863Y011622D01*
X035863Y011786D01*
X035945Y011867D01*
X036027Y011867D01*
X036109Y011786D01*
X036109Y011622D01*
X036190Y011541D01*
X036272Y011541D01*
X036354Y011622D01*
X036354Y011786D01*
X036272Y011867D01*
X036354Y012056D02*
X036354Y012383D01*
X036354Y012220D02*
X035863Y012220D01*
X035945Y012572D02*
X035863Y012654D01*
X035863Y012817D01*
X035945Y012899D01*
X036027Y012899D01*
X036109Y012817D01*
X036109Y012735D01*
X036109Y012817D02*
X036190Y012899D01*
X036272Y012899D01*
X036354Y012817D01*
X036354Y012654D01*
X036272Y012572D01*
X036354Y013087D02*
X035863Y013087D01*
X035863Y013414D01*
X036354Y011352D02*
X036354Y011025D01*
X035863Y011025D01*
X036109Y011025D02*
X036109Y011188D01*
X035863Y010075D02*
X035945Y009994D01*
X036354Y009994D01*
X047674Y010175D02*
X047674Y010339D01*
X047756Y010421D01*
X048165Y010421D01*
X048165Y010609D02*
X048165Y010936D01*
X048165Y010773D02*
X047674Y010773D01*
X047674Y011125D02*
X047674Y011452D01*
X047756Y011641D02*
X047674Y011722D01*
X047674Y011886D01*
X047756Y011967D01*
X047838Y011967D01*
X047920Y011886D01*
X047920Y011722D01*
X048001Y011641D01*
X048083Y011641D01*
X048165Y011722D01*
X048165Y011886D01*
X048083Y011967D01*
X048165Y012156D02*
X048165Y012483D01*
X048165Y012320D02*
X047674Y012320D01*
X047920Y012672D02*
X047920Y012999D01*
X048165Y012917D02*
X047920Y012672D01*
X048165Y012917D02*
X047674Y012917D01*
X047674Y013187D02*
X047674Y013514D01*
X047674Y013187D02*
X048165Y013187D01*
X048165Y011452D02*
X048165Y011125D01*
X047674Y011125D01*
X047920Y011125D02*
X047920Y011288D01*
X047674Y010175D02*
X047756Y010094D01*
X048165Y010094D01*
X059485Y010175D02*
X059485Y010339D01*
X059567Y010421D01*
X059976Y010421D01*
X059976Y010609D02*
X059976Y010936D01*
X059976Y010773D02*
X059485Y010773D01*
X059485Y011125D02*
X059485Y011452D01*
X059567Y011641D02*
X059485Y011722D01*
X059485Y011886D01*
X059567Y011967D01*
X059649Y011967D01*
X059731Y011886D01*
X059731Y011722D01*
X059812Y011641D01*
X059894Y011641D01*
X059976Y011722D01*
X059976Y011886D01*
X059894Y011967D01*
X059976Y012156D02*
X059976Y012483D01*
X059976Y012320D02*
X059485Y012320D01*
X059567Y012672D02*
X059485Y012754D01*
X059485Y012917D01*
X059567Y012999D01*
X059731Y012999D01*
X059812Y012917D01*
X059812Y012835D01*
X059731Y012672D01*
X059976Y012672D01*
X059976Y012999D01*
X059976Y013187D02*
X059485Y013187D01*
X059485Y013514D01*
X059976Y011452D02*
X059976Y011125D01*
X059485Y011125D01*
X059731Y011125D02*
X059731Y011288D01*
X059485Y010175D02*
X059567Y010094D01*
X059976Y010094D01*
X071396Y010075D02*
X071396Y010239D01*
X071478Y010321D01*
X071887Y010321D01*
X071887Y010509D02*
X071887Y010836D01*
X071887Y010673D02*
X071396Y010673D01*
X071396Y011025D02*
X071396Y011352D01*
X071478Y011541D02*
X071396Y011622D01*
X071396Y011786D01*
X071478Y011867D01*
X071560Y011867D01*
X071642Y011786D01*
X071642Y011622D01*
X071723Y011541D01*
X071805Y011541D01*
X071887Y011622D01*
X071887Y011786D01*
X071805Y011867D01*
X071887Y012056D02*
X071887Y012383D01*
X071887Y012220D02*
X071396Y012220D01*
X071478Y012572D02*
X071396Y012654D01*
X071396Y012817D01*
X071478Y012899D01*
X071560Y012899D01*
X071642Y012817D01*
X071642Y012572D01*
X071478Y012572D01*
X071642Y012572D02*
X071805Y012735D01*
X071887Y012899D01*
X071887Y013087D02*
X071396Y013087D01*
X071396Y013414D01*
X071887Y011352D02*
X071887Y011025D01*
X071396Y011025D01*
X071642Y011025D02*
X071642Y011188D01*
X071396Y010075D02*
X071478Y009994D01*
X071887Y009994D01*
X084909Y005513D02*
X085236Y005513D01*
X085073Y005513D02*
X085073Y006004D01*
X085236Y005840D01*
X085425Y006004D02*
X085425Y005513D01*
X085752Y006004D01*
X085752Y005513D01*
X085941Y005513D02*
X085941Y005840D01*
X086104Y006004D01*
X086268Y005840D01*
X086268Y005513D01*
X086456Y005595D02*
X086538Y005513D01*
X086702Y005513D01*
X086783Y005595D01*
X086783Y005922D01*
X086702Y006004D01*
X086538Y006004D01*
X086456Y005922D01*
X086268Y005758D02*
X085941Y005758D01*
X086972Y005758D02*
X087054Y005677D01*
X087299Y005677D01*
X087135Y005677D02*
X086972Y005513D01*
X086972Y005758D02*
X086972Y005922D01*
X087054Y006004D01*
X087299Y006004D01*
X087299Y005513D01*
D12*
X009934Y005058D02*
X009108Y005058D01*
X010919Y005334D02*
X010919Y005688D01*
X010919Y007420D02*
X010919Y007775D01*
X009934Y008050D02*
X009108Y008050D01*
X012696Y007276D02*
X014743Y007276D01*
X014743Y003260D01*
X012696Y003260D01*
X012696Y007276D01*
X012883Y011364D02*
X014183Y011364D01*
X014183Y013944D01*
X012883Y013944D01*
X012883Y011364D01*
X013012Y014282D02*
X012579Y014282D01*
X012422Y014439D01*
X012422Y015069D01*
X012579Y015227D01*
X013012Y015227D01*
X013800Y015227D02*
X014390Y015227D01*
X014390Y014282D01*
X013800Y014282D01*
D13*
X014359Y006921D03*
D14*
X024278Y007315D02*
X024483Y007315D01*
X024278Y007315D02*
X024278Y008299D01*
X025533Y008299D01*
X026094Y008299D02*
X027540Y008299D01*
X028094Y008299D02*
X029540Y008299D01*
X030152Y008299D02*
X030357Y008299D01*
X030357Y007315D01*
X029102Y007315D01*
X028507Y007315D02*
X027128Y007315D01*
X026507Y007315D02*
X025128Y007315D01*
X036278Y007315D02*
X036483Y007315D01*
X036278Y007315D02*
X036278Y008299D01*
X037533Y008299D01*
X038094Y008299D02*
X039540Y008299D01*
X040094Y008299D02*
X041540Y008299D01*
X042152Y008299D02*
X042357Y008299D01*
X042357Y007315D01*
X041102Y007315D01*
X040507Y007315D02*
X039128Y007315D01*
X038507Y007315D02*
X037128Y007315D01*
X048278Y007315D02*
X048483Y007315D01*
X048278Y007315D02*
X048278Y008299D01*
X049533Y008299D01*
X050094Y008299D02*
X051540Y008299D01*
X052094Y008299D02*
X053540Y008299D01*
X054152Y008299D02*
X054357Y008299D01*
X054357Y007315D01*
X053102Y007315D01*
X052507Y007315D02*
X051128Y007315D01*
X050507Y007315D02*
X049128Y007315D01*
X059778Y007315D02*
X059983Y007315D01*
X059778Y007315D02*
X059778Y008299D01*
X061033Y008299D01*
X061594Y008299D02*
X063040Y008299D01*
X063594Y008299D02*
X065040Y008299D01*
X065652Y008299D02*
X065857Y008299D01*
X065857Y007315D01*
X064602Y007315D01*
X064007Y007315D02*
X062628Y007315D01*
X062007Y007315D02*
X060628Y007315D01*
X071778Y007315D02*
X071983Y007315D01*
X071778Y007315D02*
X071778Y008299D01*
X073033Y008299D01*
X073594Y008299D02*
X075040Y008299D01*
X075594Y008299D02*
X077040Y008299D01*
X077652Y008299D02*
X077857Y008299D01*
X077857Y007315D01*
X076602Y007315D01*
X076007Y007315D02*
X074628Y007315D01*
X074007Y007315D02*
X072628Y007315D01*
X072094Y015815D02*
X073540Y015815D01*
X074094Y015815D02*
X075540Y015815D01*
X076102Y015815D02*
X077357Y015815D01*
X077357Y016799D01*
X077152Y016799D01*
X076507Y016799D02*
X075128Y016799D01*
X074507Y016799D02*
X073128Y016799D01*
X072533Y016799D02*
X071278Y016799D01*
X071278Y015815D01*
X071483Y015815D01*
X065357Y015815D02*
X064102Y015815D01*
X063540Y015815D02*
X062094Y015815D01*
X061540Y015815D02*
X060094Y015815D01*
X059483Y015815D02*
X059278Y015815D01*
X059278Y016799D01*
X060533Y016799D01*
X061128Y016799D02*
X062507Y016799D01*
X063128Y016799D02*
X064507Y016799D01*
X065152Y016799D02*
X065357Y016799D01*
X065357Y015815D01*
X053657Y015815D02*
X052402Y015815D01*
X051840Y015815D02*
X050394Y015815D01*
X049840Y015815D02*
X048394Y015815D01*
X047783Y015815D02*
X047578Y015815D01*
X047578Y016799D01*
X048833Y016799D01*
X049428Y016799D02*
X050807Y016799D01*
X051428Y016799D02*
X052807Y016799D01*
X053452Y016799D02*
X053657Y016799D01*
X053657Y015815D01*
X041857Y015815D02*
X040602Y015815D01*
X040040Y015815D02*
X038594Y015815D01*
X038040Y015815D02*
X036594Y015815D01*
X035983Y015815D02*
X035778Y015815D01*
X035778Y016799D01*
X037033Y016799D01*
X037628Y016799D02*
X039007Y016799D01*
X039628Y016799D02*
X041007Y016799D01*
X041652Y016799D02*
X041857Y016799D01*
X041857Y015815D01*
X030357Y015815D02*
X029102Y015815D01*
X028540Y015815D02*
X027094Y015815D01*
X026540Y015815D02*
X025094Y015815D01*
X024483Y015815D02*
X024278Y015815D01*
X024278Y016799D01*
X025533Y016799D01*
X026128Y016799D02*
X027507Y016799D01*
X028128Y016799D02*
X029507Y016799D01*
X030152Y016799D02*
X030357Y016799D01*
X030357Y015815D01*
X013256Y015154D02*
X013256Y014354D01*
X019978Y031215D02*
X020183Y031215D01*
X019978Y031215D02*
X019978Y032199D01*
X021233Y032199D01*
X021794Y032199D02*
X023240Y032199D01*
X023794Y032199D02*
X025240Y032199D01*
X025852Y032199D02*
X026057Y032199D01*
X026057Y031215D01*
X024802Y031215D01*
X024207Y031215D02*
X022828Y031215D01*
X022207Y031215D02*
X020828Y031215D01*
X031978Y031215D02*
X032183Y031215D01*
X031978Y031215D02*
X031978Y032199D01*
X033233Y032199D01*
X033794Y032199D02*
X035240Y032199D01*
X035794Y032199D02*
X037240Y032199D01*
X037852Y032199D02*
X038057Y032199D01*
X038057Y031215D01*
X036802Y031215D01*
X036207Y031215D02*
X034828Y031215D01*
X034207Y031215D02*
X032828Y031215D01*
X043478Y031215D02*
X043683Y031215D01*
X043478Y031215D02*
X043478Y032199D01*
X044733Y032199D01*
X045294Y032199D02*
X046740Y032199D01*
X047294Y032199D02*
X048740Y032199D01*
X049352Y032199D02*
X049557Y032199D01*
X049557Y031215D01*
X048302Y031215D01*
X047707Y031215D02*
X046328Y031215D01*
X045707Y031215D02*
X044328Y031215D01*
X055478Y031215D02*
X055683Y031215D01*
X055478Y031215D02*
X055478Y032199D01*
X056733Y032199D01*
X057294Y032199D02*
X058740Y032199D01*
X059294Y032199D02*
X060740Y032199D01*
X061352Y032199D02*
X061557Y032199D01*
X061557Y031215D01*
X060302Y031215D01*
X059707Y031215D02*
X058328Y031215D01*
X057707Y031215D02*
X056328Y031215D01*
X067478Y031215D02*
X067683Y031215D01*
X067478Y031215D02*
X067478Y032199D01*
X068733Y032199D01*
X069294Y032199D02*
X070740Y032199D01*
X071294Y032199D02*
X072740Y032199D01*
X073352Y032199D02*
X073557Y032199D01*
X073557Y031215D01*
X072302Y031215D01*
X071707Y031215D02*
X070328Y031215D01*
X069707Y031215D02*
X068328Y031215D01*
X068294Y040215D02*
X069740Y040215D01*
X070294Y040215D02*
X071740Y040215D01*
X072302Y040215D02*
X073557Y040215D01*
X073557Y041199D01*
X073352Y041199D01*
X072707Y041199D02*
X071328Y041199D01*
X070707Y041199D02*
X069328Y041199D01*
X068733Y041199D02*
X067478Y041199D01*
X067478Y040215D01*
X067683Y040215D01*
X061557Y040215D02*
X060302Y040215D01*
X059740Y040215D02*
X058294Y040215D01*
X057740Y040215D02*
X056294Y040215D01*
X055683Y040215D02*
X055478Y040215D01*
X055478Y041199D01*
X056733Y041199D01*
X057328Y041199D02*
X058707Y041199D01*
X059328Y041199D02*
X060707Y041199D01*
X061352Y041199D02*
X061557Y041199D01*
X061557Y040215D01*
X049557Y040215D02*
X048302Y040215D01*
X047740Y040215D02*
X046294Y040215D01*
X045740Y040215D02*
X044294Y040215D01*
X043683Y040215D02*
X043478Y040215D01*
X043478Y041199D01*
X044733Y041199D01*
X045328Y041199D02*
X046707Y041199D01*
X047328Y041199D02*
X048707Y041199D01*
X049352Y041199D02*
X049557Y041199D01*
X049557Y040215D01*
X038057Y040215D02*
X036802Y040215D01*
X036240Y040215D02*
X034794Y040215D01*
X034240Y040215D02*
X032794Y040215D01*
X032183Y040215D02*
X031978Y040215D01*
X031978Y041199D01*
X033233Y041199D01*
X033828Y041199D02*
X035207Y041199D01*
X035828Y041199D02*
X037207Y041199D01*
X037852Y041199D02*
X038057Y041199D01*
X038057Y040215D01*
X026057Y040215D02*
X024802Y040215D01*
X024240Y040215D02*
X022794Y040215D01*
X022240Y040215D02*
X020794Y040215D01*
X020183Y040215D02*
X019978Y040215D01*
X019978Y041199D01*
X021233Y041199D01*
X021828Y041199D02*
X023207Y041199D01*
X023828Y041199D02*
X025207Y041199D01*
X025852Y041199D02*
X026057Y041199D01*
X026057Y040215D01*
D15*
X025576Y037683D02*
X025576Y034731D01*
X020458Y034731D02*
X020458Y037683D01*
X020694Y036601D02*
X020696Y036619D01*
X020702Y036635D01*
X020711Y036650D01*
X020724Y036663D01*
X020739Y036672D01*
X020755Y036678D01*
X020773Y036680D01*
X020791Y036678D01*
X020807Y036672D01*
X020822Y036663D01*
X020835Y036650D01*
X020844Y036635D01*
X020850Y036619D01*
X020852Y036601D01*
X020850Y036583D01*
X020844Y036567D01*
X020835Y036552D01*
X020822Y036539D01*
X020807Y036530D01*
X020791Y036524D01*
X020773Y036522D01*
X020755Y036524D01*
X020739Y036530D01*
X020724Y036539D01*
X020711Y036552D01*
X020702Y036567D01*
X020696Y036583D01*
X020694Y036601D01*
X032458Y037683D02*
X032458Y034731D01*
X032694Y036601D02*
X032696Y036619D01*
X032702Y036635D01*
X032711Y036650D01*
X032724Y036663D01*
X032739Y036672D01*
X032755Y036678D01*
X032773Y036680D01*
X032791Y036678D01*
X032807Y036672D01*
X032822Y036663D01*
X032835Y036650D01*
X032844Y036635D01*
X032850Y036619D01*
X032852Y036601D01*
X032850Y036583D01*
X032844Y036567D01*
X032835Y036552D01*
X032822Y036539D01*
X032807Y036530D01*
X032791Y036524D01*
X032773Y036522D01*
X032755Y036524D01*
X032739Y036530D01*
X032724Y036539D01*
X032711Y036552D01*
X032702Y036567D01*
X032696Y036583D01*
X032694Y036601D01*
X037576Y037683D02*
X037576Y034731D01*
X043958Y034731D02*
X043958Y037683D01*
X044194Y036601D02*
X044196Y036619D01*
X044202Y036635D01*
X044211Y036650D01*
X044224Y036663D01*
X044239Y036672D01*
X044255Y036678D01*
X044273Y036680D01*
X044291Y036678D01*
X044307Y036672D01*
X044322Y036663D01*
X044335Y036650D01*
X044344Y036635D01*
X044350Y036619D01*
X044352Y036601D01*
X044350Y036583D01*
X044344Y036567D01*
X044335Y036552D01*
X044322Y036539D01*
X044307Y036530D01*
X044291Y036524D01*
X044273Y036522D01*
X044255Y036524D01*
X044239Y036530D01*
X044224Y036539D01*
X044211Y036552D01*
X044202Y036567D01*
X044196Y036583D01*
X044194Y036601D01*
X049076Y037683D02*
X049076Y034731D01*
X055958Y034731D02*
X055958Y037683D01*
X056194Y036601D02*
X056196Y036619D01*
X056202Y036635D01*
X056211Y036650D01*
X056224Y036663D01*
X056239Y036672D01*
X056255Y036678D01*
X056273Y036680D01*
X056291Y036678D01*
X056307Y036672D01*
X056322Y036663D01*
X056335Y036650D01*
X056344Y036635D01*
X056350Y036619D01*
X056352Y036601D01*
X056350Y036583D01*
X056344Y036567D01*
X056335Y036552D01*
X056322Y036539D01*
X056307Y036530D01*
X056291Y036524D01*
X056273Y036522D01*
X056255Y036524D01*
X056239Y036530D01*
X056224Y036539D01*
X056211Y036552D01*
X056202Y036567D01*
X056196Y036583D01*
X056194Y036601D01*
X061076Y037683D02*
X061076Y034731D01*
X067958Y034731D02*
X067958Y037683D01*
X068194Y036601D02*
X068196Y036619D01*
X068202Y036635D01*
X068211Y036650D01*
X068224Y036663D01*
X068239Y036672D01*
X068255Y036678D01*
X068273Y036680D01*
X068291Y036678D01*
X068307Y036672D01*
X068322Y036663D01*
X068335Y036650D01*
X068344Y036635D01*
X068350Y036619D01*
X068352Y036601D01*
X068350Y036583D01*
X068344Y036567D01*
X068335Y036552D01*
X068322Y036539D01*
X068307Y036530D01*
X068291Y036524D01*
X068273Y036522D01*
X068255Y036524D01*
X068239Y036530D01*
X068224Y036539D01*
X068211Y036552D01*
X068202Y036567D01*
X068196Y036583D01*
X068194Y036601D01*
X073076Y037683D02*
X073076Y034731D01*
X072112Y013594D02*
X072112Y010642D01*
X072348Y012512D02*
X072350Y012530D01*
X072356Y012546D01*
X072365Y012561D01*
X072378Y012574D01*
X072393Y012583D01*
X072409Y012589D01*
X072427Y012591D01*
X072445Y012589D01*
X072461Y012583D01*
X072476Y012574D01*
X072489Y012561D01*
X072498Y012546D01*
X072504Y012530D01*
X072506Y012512D01*
X072504Y012494D01*
X072498Y012478D01*
X072489Y012463D01*
X072476Y012450D01*
X072461Y012441D01*
X072445Y012435D01*
X072427Y012433D01*
X072409Y012435D01*
X072393Y012441D01*
X072378Y012450D01*
X072365Y012463D01*
X072356Y012478D01*
X072350Y012494D01*
X072348Y012512D01*
X077231Y013594D02*
X077231Y010642D01*
X065420Y010642D02*
X065420Y013594D01*
X060537Y012512D02*
X060539Y012530D01*
X060545Y012546D01*
X060554Y012561D01*
X060567Y012574D01*
X060582Y012583D01*
X060598Y012589D01*
X060616Y012591D01*
X060634Y012589D01*
X060650Y012583D01*
X060665Y012574D01*
X060678Y012561D01*
X060687Y012546D01*
X060693Y012530D01*
X060695Y012512D01*
X060693Y012494D01*
X060687Y012478D01*
X060678Y012463D01*
X060665Y012450D01*
X060650Y012441D01*
X060634Y012435D01*
X060616Y012433D01*
X060598Y012435D01*
X060582Y012441D01*
X060567Y012450D01*
X060554Y012463D01*
X060545Y012478D01*
X060539Y012494D01*
X060537Y012512D01*
X060301Y013594D02*
X060301Y010642D01*
X053609Y010642D02*
X053609Y013594D01*
X048726Y012512D02*
X048728Y012530D01*
X048734Y012546D01*
X048743Y012561D01*
X048756Y012574D01*
X048771Y012583D01*
X048787Y012589D01*
X048805Y012591D01*
X048823Y012589D01*
X048839Y012583D01*
X048854Y012574D01*
X048867Y012561D01*
X048876Y012546D01*
X048882Y012530D01*
X048884Y012512D01*
X048882Y012494D01*
X048876Y012478D01*
X048867Y012463D01*
X048854Y012450D01*
X048839Y012441D01*
X048823Y012435D01*
X048805Y012433D01*
X048787Y012435D01*
X048771Y012441D01*
X048756Y012450D01*
X048743Y012463D01*
X048734Y012478D01*
X048728Y012494D01*
X048726Y012512D01*
X048490Y013594D02*
X048490Y010642D01*
X041797Y010642D02*
X041797Y013594D01*
X036915Y012512D02*
X036917Y012530D01*
X036923Y012546D01*
X036932Y012561D01*
X036945Y012574D01*
X036960Y012583D01*
X036976Y012589D01*
X036994Y012591D01*
X037012Y012589D01*
X037028Y012583D01*
X037043Y012574D01*
X037056Y012561D01*
X037065Y012546D01*
X037071Y012530D01*
X037073Y012512D01*
X037071Y012494D01*
X037065Y012478D01*
X037056Y012463D01*
X037043Y012450D01*
X037028Y012441D01*
X037012Y012435D01*
X036994Y012433D01*
X036976Y012435D01*
X036960Y012441D01*
X036945Y012450D01*
X036932Y012463D01*
X036923Y012478D01*
X036917Y012494D01*
X036915Y012512D01*
X036679Y013594D02*
X036679Y010642D01*
X029986Y010642D02*
X029986Y013594D01*
X025104Y012512D02*
X025106Y012530D01*
X025112Y012546D01*
X025121Y012561D01*
X025134Y012574D01*
X025149Y012583D01*
X025165Y012589D01*
X025183Y012591D01*
X025201Y012589D01*
X025217Y012583D01*
X025232Y012574D01*
X025245Y012561D01*
X025254Y012546D01*
X025260Y012530D01*
X025262Y012512D01*
X025260Y012494D01*
X025254Y012478D01*
X025245Y012463D01*
X025232Y012450D01*
X025217Y012441D01*
X025201Y012435D01*
X025183Y012433D01*
X025165Y012435D01*
X025149Y012441D01*
X025134Y012450D01*
X025121Y012463D01*
X025112Y012478D01*
X025106Y012494D01*
X025104Y012512D01*
X024868Y013594D02*
X024868Y010642D01*
M02*
